/* XPM */
static char *_106_febba64922762c87cb7d5cac41127f9ca1571602ccd0b948f073463d7f2a9d90[] = {
/* columns rows colors chars-per-pixel */
"64 64 248 2 ",
"   c #190B04",
".  c #1B1513",
"X  c #140E07",
"o  c #220F04",
"O  c #231305",
"+  c #24150C",
"@  c #2B180A",
"#  c #241C15",
"$  c #2B1D13",
"%  c #241918",
"&  c #321F14",
"*  c #361F0F",
"=  c #2C231D",
"-  c #2E2215",
";  c #342215",
":  c #35281C",
">  c #3D2C1C",
",  c #372519",
"<  c #3C2A16",
"1  c #392C23",
"2  c #3E3328",
"3  c #393437",
"4  c #342A31",
"5  c #432C1B",
"6  c #44301F",
"7  c #443323",
"8  c #483625",
"9  c #4B3A25",
"0  c #433429",
"q  c #453A2C",
"w  c #4C3C2B",
"e  c #463925",
"r  c #513E2C",
"t  c #4B3E32",
"y  c #453B33",
"u  c #523E32",
"i  c #432E22",
"p  c #4E412B",
"a  c #53422D",
"s  c #5A432C",
"d  c #4D4136",
"f  c #554434",
"g  c #594634",
"h  c #5B4934",
"j  c #564A3B",
"k  c #5D4C3B",
"l  c #54463A",
"z  c #5E523C",
"x  c #634C35",
"c  c #634E3B",
"v  c #604635",
"b  c #67533D",
"n  c #715C3F",
"m  c #3D3540",
"M  c #483D41",
"N  c #594C42",
"B  c #5D5345",
"V  c #634E41",
"C  c #645343",
"Z  c #6A5543",
"A  c #6C5A45",
"S  c #6C5C4B",
"D  c #66574A",
"F  c #735B45",
"G  c #735B4B",
"H  c #775C47",
"J  c #6B5C52",
"K  c #775F53",
"L  c #6E614B",
"P  c #74624C",
"I  c #7B634C",
"U  c #76644A",
"Y  c #6D6356",
"T  c #746353",
"R  c #7A6553",
"E  c #756954",
"W  c #7D6B55",
"Q  c #756A5B",
"!  c #7C6C5B",
"~  c #77665A",
"^  c #7D715B",
"/  c #7B6B64",
"(  c #7C7468",
")  c #69676A",
"_  c #81664D",
"`  c #836B54",
"'  c #836D5B",
"]  c #856955",
"[  c #85725D",
"{  c #8B735B",
"}  c #877156",
"|  c #92745D",
" . c #90785E",
".. c #836F62",
"X. c #847362",
"o. c #8B7563",
"O. c #8C7A64",
"+. c #89766A",
"@. c #8C7B6B",
"#. c #84796A",
"$. c #927663",
"%. c #947C64",
"&. c #9B7D65",
"*. c #927D6A",
"=. c #9B7E69",
"-. c #8A7D72",
";. c #927F71",
":. c #8B816C",
">. c #998166",
",. c #95816C",
"<. c #9C846C",
"1. c #9B866B",
"2. c #8C8474",
"3. c #8A8777",
"4. c #948373",
"5. c #9B8572",
"6. c #9D8973",
"7. c #948B7B",
"8. c #9D8C7C",
"9. c #92877B",
"0. c #97907D",
"q. c #A2856D",
"w. c #A1886E",
"e. c #A08266",
"r. c #A28772",
"t. c #A38B73",
"y. c #AA8C75",
"u. c #A48E7A",
"i. c #AA8E79",
"p. c #B18F77",
"a. c #A6927B",
"s. c #AC937C",
"d. c #AB957A",
"f. c #B2947E",
"g. c #B1967D",
"h. c #998D83",
"j. c #9E9385",
"k. c #9F9B90",
"l. c #A49484",
"z. c #AC9582",
"x. c #AC9984",
"c. c #A49A8C",
"v. c #AA9B8B",
"b. c #A69689",
"n. c #B39B84",
"m. c #B29D89",
"M. c #B99E8A",
"N. c #B59A84",
"B. c #AB9E92",
"V. c #A49D91",
"C. c #A28F81",
"Z. c #B6A18B",
"A. c #BCA38D",
"S. c #B9A589",
"D. c #A5A194",
"F. c #ACA395",
"G. c #ACA59A",
"H. c #ADA99D",
"J. c #A6A499",
"K. c #B4A392",
"L. c #BCA692",
"P. c #BCA994",
"I. c #B0A69A",
"U. c #B2AA9E",
"Y. c #BBAB9B",
"T. c #B7A895",
"R. c #BFB09D",
"E. c #AEAAA1",
"W. c #B2ADA3",
"Q. c #B6AFA3",
"!. c #B5B1A6",
"~. c #B6B2AA",
"^. c #BAB5AB",
"/. c #BDB9AE",
"(. c #BBB3A5",
"). c #BEBBB2",
"_. c #BAB7B3",
"`. c #C3AB94",
"'. c #C4AE99",
"]. c #C4A993",
"[. c #C5B19C",
"{. c #CAB39D",
"}. c #C2B195",
"|. c #C1A58D",
" X c #CBB6A2",
".X c #CDB9A5",
"XX c #C2BDAE",
"oX c #CCBBAA",
"OX c #C5B5A5",
"+X c #D2BFAB",
"@X c #D1BBA6",
"#X c #C1BDB3",
"$X c #C6BFB5",
"%X c #BFC1BE",
"&X c #C4C2B5",
"*X c #CAC3B5",
"=X c #C5C3BB",
"-X c #C9C6BC",
";X c #CBCABD",
":X c #D4C7BA",
">X c #D9C1AB",
",X c #E0CAB5",
"<X c #C9C7C1",
"1X c #CCCAC4",
"2X c #CECECA",
"3X c #C6C5C0",
"4X c #D1CDC4",
"5X c #D1CFC9",
"6X c #DCCDC2",
"7X c #CED1CA",
"8X c #D5D1C5",
"9X c #D4D2CC",
"0X c #DAD5CB",
"qX c #DCD9CC",
"wX c #DBD4C5",
"eX c #D5D5D1",
"rX c #D9D6D1",
"tX c #DBDAD4",
"yX c #DEDED9",
"uX c #D7D8D3",
"iX c #E3DACE",
"pX c #E6D6CD",
"aX c #E2DDD4",
"sX c #E1DFDA",
"dX c #E6DBD1",
"fX c #DFE0DB",
"gX c #E2E2DD",
"hX c #EAE5DC",
"jX c #E9E5D8",
"kX c #F4E8DD",
"lX c #E5E5E2",
"zX c #E9E6E2",
"xX c #EAEAE5",
"cX c #ECEDEA",
"vX c #E7E8E5",
"bX c #F3ECE4",
"nX c #F2EEEB",
"mX c #FBECE2",
"MX c #EEF1EC",
"NX c #F2F2EE",
"BX c #FEF4EB",
"VX c #FCF6E9",
"CX c #F4F5F3",
"ZX c #FBF6F2",
"AX c #F6F8F5",
"SX c #FCFBF6",
"DX c #FEFEFC",
"FX c #F6F9F9",
/* pixels */
"# 2 y y k P { %.$.1.w.d.d.Z.S.g.Z.>XOX[.oXOXOXOXOXoX@X@X{.@X`.A.`.}.{.`.{.{. X{.'.{..X XA.A.L.Z.S.g.S.g.d.d.0.1.>.} } W z p . 3 ",
"2 1 1 d S [ O.>.q.>.e.t.g.d.d.S.oXoXOXOX*XOXoX}.oX.X X[.'.Z.{.S.S.P.|.M.A.|.].]..X[.{.L.L.A.m.s.a.a.a.d.a.d.d.6.O.{ } [ L 2 . X ",
"# : 2 z ~ ,.{ 1.w.e.t.t.n.x.S.OXoXT.K.v.8.l.j.F.K.T.v.A.a.a.t.g.S.A.S.N.N.M.M.|.A.A.z.u.5.5.;.8.O.8.:.4.:.9.2.7.1.W } } L q . X ",
"; q N ~ [ <.6.w.>.q.w.d.d.P.}.A.l.j.E c.O.E E D T / X.E S I R ] w.d.f.f.p.p.i.i.a.<.! A D l f l D B j Y Y Y D j 8.[ [ W Q d # X ",
": j C E O.%.,.1.<.t.t.n.Z.P.A.l.2.#.J d C B d t p j C C h a Z g | &.y.p.r.y.q.r.{ F h q 0 1 & % = y d N y 3 2 B B ^ ^ ^ E B - X ",
"> f S o.O.%.w.<.%.w.s.n.P.x.6.@.K l d l q : $ + - q ; > w 9 5 b _ | &.&.&.&.&.&.I c 9 7 % + + . . . . = # = = y p :.z E ^ Q e X ",
"p A P } ,.1.1.>.w.g.a.6.u.5.4.O.#.l N 0 - - + $ O @ $ , 7 w 9 c ] | &.&.&.| | | b g 8 ; & + + +   % % # # # = 3 B Q E L Q E j X ",
"h G R O.>.1.<.r.w.d.%.<.,.@.o.C N l 1 2 $ + & & > 0 9 r g s b H _ _ | | | | } } b x u w 0 i 1 : & #   + = # = = B B Y ^ E ^ B X ",
"b U W  .>.w.t.w.w.<.1.*.W o.! k 0 & 0 > i t u l k f k c c c b F _ _ _ | $.| _ _ n c c h c C C N V f g , - $ : : 2 j L E Y ^ L   ",
"U ` }  .1.d.w.w.w.w.1.[ o.A C f D D A D ..;.4.*.@.' R R H H b F _ _ | &.=.{ _ K F b R R [ ! [ O.@.,.4.4.X.j 0 1 p j z z L ( Q   ",
"I I {  .%.d.g.g.1.{ } { ' R R C ..@.;.b.l.l.m.l.5.5.[ $.%.] H H H | | | =.{ _ _ R R %.o.6.1.5.r.r.u.u.6.a.X.S > 2 j z L [ ! ~   ",
"` { >.%.>.y.t.>. .{ } { ` <.O.=.m.x.v. X[.OX].K.x.y.<.<.<.$._ H _ | =.=.=.<.%._ ` o.<.6.a.s.i.m.M.g.g.a.6.6.*.~ 2 a b L S ..!   ",
"} %.%.&.>.1.w.>.>. .` _ o.a.6.x.u.P. XOX X+X X{.].r.z.<.$.&.] _ _ &.y.d.i.i.>._ R O.1.u.a.d.=.=.<.5.d.<.a.5.5.o.z z p E E ^ ( O ",
"} %.>.w.w. . .{ { ` ` >.%.>.6.a.K.L.OX X+X'.{.[.s.<.=.[ ] _ _ H ] &.g.Z.N.a. .I U _ [ >.6.,.o.[ Z X.` H } ,.o.' ^ n h U A O.@.o ",
"$.*.%.>.1.{  .{  .} I  .%.>.r.x.Z.Y.P.P.P.'..XA.<.5.] I _ n H H _ =.N.|.].f. .U n n U R P V G ..R O.*.' [ [ [ O.W E z ^ ^ ^ X.  ",
">.1.r.>.1.>. .} _ _ } { *.y.N.A.n.Y.L.K.b.n.4.*.` A x x s x b H ] &.N.Z.N.d.w.I x b x 9 i 5 1 * @   O ; < k c ^ [ W L U W [ :.+ ",
"6.6.6.d.1.1. .} } { 1.w.g.S.|.|.N.x.+...u & o   o + & i r r x F ` >.M.`.{.'.a.I v g 8 > u & u @ # %   o o o & c ..@.^ U W :.O.O ",
"6.u.d.a.t.1.t.>.U >.1.t.t.1.} _ v * 5 5 O @ o & 0 , o @ 8 _ Z } { { a.{.`.L.n.' A C S u o , l 1 1 X   $ i + o & G ' o.U ^ } ^ : ",
"g.d.g.g.d.t.1.t.>._ } x 5 @ @ * 5 5 * * & @ @ & u K D R o.r.o.%.>.6.d.}.>X{.m.O.K ' ..K f V K V u = 1 0 1 i , @ ; C [ o.L o.:.: ",
"g.g.i.g.g.g.Z.g.d.} >.n S.y.%.` K F Z Z G D K ~ ~ ! o.8.=.*.=.5.t.6.n.}.>X.XA.<.` l.u.z.b.+.@.+.+./ +.D S V Z u 5 i ` W [ #.:.1 ",
"q.s.M.x.x.x.P.P.S.}.} t.Z.P.Z.s.u.$.$.] ] G K ..X.@.@.' $.o.6.y.a.a.Z.@X,X+X].n.o.[ R W 5.4.;.*.+.K ..o.W ' ! G [ A :.[ :.O.:.0 ",
"5.s.z.z.P.S.R.[.R.x.S.d.d.t.g.S.M.z.] z.;.u.u.z.<.*.*.o.K [ x.N.d.d.n.{.,X+X@XN.X.' K K T 8.9.8.h.C.;.5.o.o.~ [ [ W }  .:.[ @.2.",
"9.8.l.Z.P.S.S.P.P.R.v.v.a.t.q.e.=.|.M.z.m.M.m.u.<.*.*.R H r.z.s.N.L.n.S.@X@XoXA.{ *.R A G ' ..;.C.r.b.@.o.A ~ T [ [ W :.:.:.@.wX",
"ZXB.l.8.a.a.F.S.R.R.P.T.d.1. .&.;.$.;.5.;.8.5.;.X.@.G S ' 9.C.C.l.v.T.oX:X:X+XY.X.@.+.~ *./ +.C.h.h.;.4.! N k J Q :.:.W :.X.*XT.",
"R ! OXVXVXoXj.v.T.Z.S.8.<.8.4.h.OXrXZXZXZXSXSXSXSXSXSXSXDXDXSXDXSXSXDXSXDXSXSXSXCXnXnXnXnXzXzXzXxXhXhXkXbXbXbXgXtX/ 3.9.2.jX2.N ",
"%.5.5.8.7.pXVXmXl.P.x.z.8.BXSXZXDXZXDXDXDXSXSXDXSXDXDXDXDXDXDXDXDXDXDXDXDXDXDXDXFXFXZXCXCXCXFXCXSXSXAXNXnXNXcXvXaXxX0.(.kX:.-.~ ",
"{ 6.s.a.'.L.M.5.:XVXZXSXSXZXDXDXDXZXCXZXSXDXDXDXDXDXDXDXDXDXDXDXDXDXDXDXDXDXDXDXDXZXFXFXFXCXFXFXCXAXCXCXCXNXCXFXNXbXkXjXQ 9.q J ",
"6.1.t.s.r.i.|.].K.7.VXSXDXDXDXDXZXDXDXDXSXDXDXFXDXDXDXDXDXDXDXDXDXDXDXDXDXDXDXDXFXCXCXCXCXCXZXNXCXCXCXCXCXCXFXFXcXxXjX3.9.7.q y ",
"t.t.r.p.y.p.N.].'.Y.B.ZXDXDXFXDXDXDXDXDXDXFXDXDXDXDXDXDXDXDXDXDXDXDXDXDXDXDXDXSXFXCXNXCXMXMXNXNXcXMXMXMXMXMXcXCXxXfX8X/.0.0.( 0 ",
"a.y.y.y.e.y.y.|.M.K.b.SXDXDXDXFXDXDXDXDXDXDXDXDXDXDXDXDXDXDXDXDXDXDXDXDXDXDXSXCXCXCXnXcXMXNXcXcXcXMXMXMXMXcXcXcXMXVXjX:.3.:.X.d ",
"y.y.f.r.q.f.f.r.z.N.h.mXBXZXFXFXCXSXDXDXDXDXDXDXDXDXDXDXDXDXDXDXDXDXSXDXSXFXAXCXcXcXcXcXcXcXxXxXxXzXzXvXvXvXvXlXfXxXVXjX3.Q / d ",
"d.i.f.N.f.p.y.p.p.M.u.OXbXnXNXCXFXFXFXDXDXDXDXFXDXDXDXDXDXDXDXDXDXFXFXFXAXCXCXNXcXcXcXvXcXvXxXvXxXzXvXxXvXMXMXcXfXeX9XJ.9.Y 9.^.",
"i.p.y.r.N.i.p.=.p.y.C.pXSXDXDXDXDXDXSXFXAXCXCXAXCXCXCXCXCXFXFXFXSXAXAXAXCXCXMXMXcXcXcXcXvXvXvXvXcXcXcXcXCXcXcXcXcXFXbX&X3.#.2.&X",
"y.r.y.f.z.i.z.y.p.y.=.mXSXDXDXDXFXDXSXDXSXDXDXDXDXZXFXFXCXCXCXMXCXCXCXCXCXcXMXcXcXcXcXvXcXcXcXcXvXcXnXcXcXcXcXfXfXvXtXyX3.#.:.:X",
"p.N.z.p.y.i.z.p.p.=.r.;.SXCXNXCXDXDXDXDXDXDXDXDXDXDXDXDXDXDXFXDXAXAXAXCXCXNXNXMXvXvXvXvXvXvXvXvXlXlXvXlXlXlXyX2X2X7X7X_.-.:.8X;X",
"i.y.s.z.N.i.z.p.N.r.u.:XnXSXSXDXDXDXDXDXDXDXDXDXDXDXDXZXFXFXCXCXCXNXcXcXxXxXzXvXlXlXlXlXlXlXlXlXlXyXlXlXlXuXeX2X2XfXvX3.3.3.wX:X",
"i.i.f.N.'.m.z.p.p.N.C.K.SXDXDXSXDXDXDXDXDXDXDXDXFXFXFXFXCXCXCXCXNXMXcXxXxXgXgXvXgXgXfXgXfXlXgXlXlXlXvXlXyXeX2X2X9XuXqXbX3.2.0X;X",
"$.i.g.N.].M.i.=.p.M.z.pXbXNXDXSXDXDXDXDXDXDXDXFXCXCXCXNXNXcXvXvXvXgXgXfXfXfXtXfXuXeXuXyXyXfXgXlXyXlXlXlXvXvXvXlXcXCXZXfX3.2.jX6X",
"r.d.y.n.M.M.M.].N.M.v.I.NXSXNXSXNXCXAXSXAXZXCXZXCXCXNXcXzXlXlXsXgXfXyXtXtXtXuXeXeXeXeXuXyXyXgXgXlXlXlXlXvXcXvXlXvXeXrXjX3.3.jX6X",
"r.u.y.M.M.A.|.].|.M.v.pXDXSXDXNXZXCXNXcXcXzXlXlXlXlXlXlXlXlXlXsXgXfXfXtXuXuX9X9XeXeXeXuXuXyXsXgXlXlXvXvXcXcXcXvXMXMXNXbXjX3.aX0X",
"y.i.s.N.N.n.n.S.N.M.x.bXlXlXgXaXrX9XzXyXsXtXrXuXrXrXyXsXsXsXaXtXtXtXrXrX0X9X5X4X2X2X5XuXuXyXsXsXlXcXMXCXNXNXNXNXMXAXgX6X3.3.xXwX",
"i.i.i.N.x.N.M.M.M.N.h.mXtX5X=X^.~._.5X9X5X5X5X9XrX0X9XeXeX0XtXyX0X0XeX0X9X5X5X4X5X5XeXuXyXsXgXlXvXcXcXcXMXcXxXvXcXxXrXaX3.3.iXaX",
"u.y.i.u.i.s.N.g.N.C.;.SXlX2X5X9X9X=X=X-X-X9X9X5X1X7X1X<X-X<X5X5XeXeX9X5X5X4X4X1X<X<X1X4X9X9XtXtXtXtXyXyXfXgXfXgXsXlXnXiXfX3.aX8X",
"z.i.i.i.i.y.d.r.i.*.Y.ZXDXcXsX4X;X=XrXrX6X5X0XyXtXrX0X7X5X4X5X5X9X5X9X5X4X1X<X<X<X<X<X<X1X5X9X0XrXtXtXuX0XuX0XuXuXzXtXtXjX:.8X8X",
"y.f.p.q.<.=.r.q.<.*.Q.<X).%X=X^.%X).1X1X2X<X1X3X3X<X1X1X1X2X9XrXtXrXrX9X9X5X1X-X-X-X3X<X<X<X1X1X1X;X<X3X1X<X1X7XeX1X&X;X;X#.;X;X",
"i.z.i.e.<.$.=.=.=...9.sXeX<X7XjXlXtXfX9X2X2X2X1X1X1X2X2X2X7X9XrXtX9X9X9X5X<X<X$X#X#X).#X#X$X#X).#X#X).).).).%X&X%X%X).;XqXD.&X&X",
"r.i.p.=.$.] { { &.5.pXDXDXFXVXxXzXxXcXxXxXlXyXyXfXtXfXtXtXyXgXgXsXsXrX9X5X4X<X-X$X$X#X#X#X)._./.^._.)._.).~.E.E.^.=X&X&X;X&X&X&X",
"=.=.y.r.&.] | { [ *.BXcXCXcXNXxXvXMXMXMXMXcXvXcXvXvXlXlXgXfXfXyXaXtX9X5X<X<X-X-X-X$X#X)./.~.Q.W.Q.!.E.W.E.E.!.^.).).W.;X3.XX&XXX",
"+.;.=.=.&.] | | $.;.$X5X9XyXsXzXlXzXbXcXxXzXcXzXzXzXzXgXgXgXgXgXtXrX9X7X7X3X;X=X#X).~.~.Q.W.W.Q.!.E.~.).XX$X*X/.^.W.~.!.:.XX&X&X",
"$.$.;.=.| $.&.$...-.bXaX-X=X4X1X1XlXxXlXjXyXuXuXsXsXgXsXfXgXgXrXrX9X2X1X-X;X%X=X=X#X_.^.~.(.^.^.~.#X=X$X&XXX(.!.H.D.D.4X( %X*X;X",
"' @.*.[ | | _ | $.+.ZX-X9X<X-X_.~.2XrXeXrXuXrXtXtXaXyXqXrX0XrX9X5X4X<X<X-X=X=X=X#X#X_.^._.^.XXXX#X^.^.^.^./.!.D.D.k.!.!.8X;X;X8X",
"Y.4.@.` ] ..] | +.v.BXdX).E.D.G.J.E.W.!.!.~.#X).#X=X<X1X1X7X7X9X4X<X<X3X-X-X=X&X#X#XXX#XXX^.^.^.Q././.W.W.W.H.!.H.G.J.E.4XqXqX8X",
"mX6X9.+.K K ' ..-.2.0XfXuX&X!.J.J.H.W.W.E.E.W.H.W.~.).&X=X-X<X-X-X<X-X$X%X/.#X).#X#X).)././.^.!.~.E.W.W.H.W.!.G.j.^./.;X8X8XjXtX",
"D pXmXoX+.' ~ / / BXhX1X7X7X8X;X*X0X4X#X_.~.W.W.~.~./.).#X#X#X).#X#X).#X)./.#X#X&X)././.^.!.Q.W.H.E.H.H.E.W.W.H.H.D.(.qXgXjXjXaX",
"K J J kXmX6Xh...+.bXtX0X1X;X;X;X4X0X;X#X)./.).=X$X).#X).).&X&X&X&X#X).).#X&X&X-X#X_././.~.~.!.!.H.H.H.H.H.J.E.U.F.H.Q.iXiXhXaXjX",
"K J K / D K OXdXSXaX#X~././.XXXXwX0X0X0XqX0XwX8X5X6X4X4X4X1X<X<X&X&X/.).#X#X#X).~././.~.~.~.~.~.!.^.!.W.!.W.E./.F.&Xj.qXqXaXtXaX",
"` ` R E ~ ! K J / 6X&XU.F.F.c.F.*X$XXXXX^.#X#X=X-X&X*X*X-X-X&X/.~.^./.~.^./././.^./././.~.~.~.~.!.!.H.F.D.F.&X&XF.L qXwXqXwXqXwX",
"' ` W } o.W [ ..A *XD I.(.F.B.j.G.H.G.G.B.H.W.E.!.!.(.^./././.(.(.!.Q.!.Q.W.W.E.Q.!.~.^.~.W.E.G.H.c.V.k.U.XX*XXXB Q 8X8X&X;X8X;X",
"I } O.O.o.W { ' ' V u l b.V.B.B.B.j.j.c.V.V.D.F.G.F.U.Q.U.U.Q.Q.W.U.U.W.W.U.H.U.Q.G.U.U.W.J.J.B.c.k.k.Q.R.U.(.B B Q ^.XX&X&X&X*X",
"o.} } O.O.[ K _ G c k C t l w (.I.c.V.c.b.c.F.F.H.F.B.F.I.I.G.G.G.F.F.B.B.F.G.I.F.U.F.U.V.c.j.V.V.U.c.F.#.p j N Y :.!.~.!./.XX&X",
"%.[ *.*.o.' K K G Z b k t U.9.v.a Q b.V.c.l.c.l.l.v.F.F.F.v.l.c.c.c.B.B.B.K.B.b.v.b.b.j.v.D.F.F.U./ q > e p f j Y N M ~.XX%X)./.",
"$.*.o.*.$.{ ] H b h x h w q t w p w w a e > C :.a.c.v.x.l.l.b.x.C.l.l.C.l.b.l.C.c.x.c.7.S w > q 0 0 > q e p j N ) 4 m 3 h.%X%X%X",
"$.&.$.5.O.' ] ] H v h p 9 f f f g a r a r 9 7 9 9 e > < 9 h C Z C S S C c g 8 5 6 > e a h q w a q q e e e a l D ( % 3 3 3 ) 7X7X",
"$.| <.*.&.{ } H x s p s w a r f h C Z A A S b b S L b a 9 w w r 9 8 7 5 i 9 f f h A S A C A c g f e e 9 f h k / ) = 3 3 3 3 3 ~."
};
