/* XPM */
static char *_7104_a70e6344e237a5a4ed07c3226b4db1f714d7334436a16b2b7469a49d7ace17c7[] = {
/* columns rows colors chars-per-pixel */
"64 64 256 2 ",
"   c #1A0702",
".  c #18140C",
"X  c #1B1B14",
"o  c #1C1D1B",
"O  c #161614",
"+  c #2A1705",
"@  c #341902",
"#  c #231E16",
"$  c #280A00",
"%  c #1E211C",
"&  c #23231D",
"*  c #282318",
"=  c #38291B",
"-  c #392308",
";  c #1D1E21",
":  c #1E2221",
">  c #242523",
",  c #2A2A24",
"<  c #2B2D2B",
"1  c #262827",
"2  c #362E22",
"3  c #2C312C",
"4  c #38352A",
"5  c #373935",
"6  c #2E3432",
"7  c #462814",
"8  c #4D2F14",
"9  c #64331D",
"0  c #6D2517",
"q  c #483728",
"w  c #593926",
"e  c #443D34",
"r  c #693B26",
"t  c #723329",
"y  c #541F0E",
"u  c #3D433C",
"i  c #594227",
"p  c #47463A",
"a  c #5A4B37",
"s  c #514830",
"d  c #67442B",
"f  c #73442D",
"g  c #6A4835",
"h  c #784A36",
"j  c #675438",
"k  c #7B533B",
"l  c #79563A",
"z  c #74552E",
"x  c #765827",
"c  c #3E4644",
"v  c #464A45",
"b  c #565549",
"n  c #535550",
"m  c #6A5948",
"M  c #7D5442",
"N  c #7D5B42",
"B  c #775A47",
"V  c #69554D",
"C  c #786649",
"Z  c #736A55",
"A  c #717067",
"S  c #5D635F",
"D  c #AB1A16",
"F  c #B71D19",
"G  c #AA1A0E",
"H  c #B52909",
"J  c #BD221D",
"K  c #B72617",
"L  c #B6320A",
"P  c #8D2D29",
"I  c #BD3C36",
"U  c #B22F29",
"Y  c #9B1A1D",
"T  c #C2271B",
"R  c #C53618",
"E  c #C32522",
"W  c #C82925",
"Q  c #C7332A",
"!  c #D43130",
"~  c #BA4507",
"^  c #83543C",
"/  c #845A3D",
"(  c #895839",
")  c #8C4F34",
"_  c #AC4C32",
"`  c #917134",
"'  c #AC742F",
"]  c #C84F12",
"[  c #D27112",
"{  c #C8482F",
"}  c #DB7328",
"|  c #E07726",
" . c #835C43",
".. c #8A5C43",
"X. c #8B5D4B",
"o. c #855846",
"O. c #925E4A",
"+. c #96554A",
"@. c #AE5146",
"#. c #8C6145",
"$. c #84644C",
"%. c #8C644B",
"&. c #88664A",
"*. c #93644B",
"=. c #946B4E",
"-. c #996949",
";. c #9B754D",
":. c #896954",
">. c #936652",
",. c #946C53",
"<. c #9C6C54",
"1. c #9C6C5A",
"2. c #976856",
"3. c #8A7458",
"4. c #957355",
"5. c #9D7353",
"6. c #9C745B",
"7. c #97785B",
"8. c #8E704A",
"9. c #A2734E",
"0. c #A37454",
"q. c #A37A54",
"w. c #A2735C",
"e. c #A37A5C",
"r. c #A97C5C",
"t. c #A97A59",
"y. c #A56B55",
"u. c #8A7966",
"i. c #9B7C63",
"p. c #977A66",
"a. c #97756D",
"s. c #A47663",
"d. c #A47B63",
"f. c #AB7C64",
"g. c #A47B6A",
"h. c #AA7D6B",
"j. c #AA7662",
"k. c #B37B67",
"l. c #B1786E",
"z. c #CA6C51",
"x. c #7E8170",
"c. c #B99032",
"v. c #DA8C0F",
"b. c #E39917",
"n. c #E1950F",
"m. c #DDA30D",
"M. c #EBBA0C",
"N. c #E9B709",
"B. c #EAA916",
"V. c #ECBA12",
"C. c #EBB616",
"Z. c #F1BC16",
"A. c #EAAF0C",
"S. c #D5902F",
"D. c #D0A531",
"F. c #F2BB28",
"G. c #E7B12E",
"H. c #E89725",
"J. c #EEC01B",
"K. c #EFC119",
"L. c #F3C625",
"P. c #F4C629",
"I. c #8F825C",
"U. c #AB835D",
"Y. c #A8835C",
"T. c #B2865D",
"R. c #B09552",
"E. c #998368",
"W. c #988876",
"Q. c #948F72",
"!. c #AC8364",
"~. c #AD8A65",
"^. c #A4836B",
"/. c #AC836B",
"(. c #A78868",
"). c #B2846C",
"_. c #B28B6B",
"`. c #B38866",
"'. c #A48373",
"]. c #AC8472",
"[. c #A98A77",
"{. c #B58A76",
"}. c #B19376",
"|. c #AEA17B",
" X c #D0AB4B",
".X c #C39178",
"XX c #C3A76F",
"oX c #DB9649",
"OX c #EFC442",
"+X c #949288",
"@X c #AA8D83",
"#X c #A99687",
"$X c #B39688",
"%X c #AA9A93",
"&X c #B39C97",
"*X c #B08E85",
"=X c #9BA291",
"-X c #A7A998",
";X c #B5A69B",
":X c #B3AE93",
">X c #ABABA4",
",X c #B9A9A6",
"<X c #BAB6AA",
"1X c #B9BCB7",
"2X c #A9B3AD",
"3X c #B89EA1",
"4X c #D3AB99",
"5X c #C5ADAA",
"6X c #CAB7B4",
"7X c #CDB5A9",
"8X c #CB9A8E",
"9X c #BDC4BC",
"0X c #CCCDAE",
"qX c #C5C7AD",
"wX c #D3CCAD",
"eX c #CCCEB2",
"rX c #C4CBBC",
"tX c #C6C8B7",
"yX c #D3CCB3",
"uX c #D6C4B7",
"iX c #CDD1B3",
"pX c #CBD1BC",
"aX c #D1D1B4",
"sX c #D1D3BC",
"dX c #CDD1AE",
"fX c #E0C9B7",
"gX c #C4CDC2",
"hX c #C8CCC2",
"jX c #CBD3C5",
"kX c #CCD5CB",
"lX c #CDDACB",
"zX c #C7D3C5",
"xX c #D3D7C9",
"cX c #CDDAD4",
"vX c #D5DDD6",
"bX c #CECDC9",
"nX c #D5E2D4",
"mX c #DBE5DB",
"MX c #DCEADD",
"NX c #D8E4D9",
"BX c #D4E1CD",
"VX c #E5E7DC",
"CX c #FCE5DD",
"ZX c #F8F2DE",
"AX c #DBE5E2",
"SX c #DCEBE3",
"DX c #DDECEB",
"FX c #D8E4E4",
"GX c #DDF1E7",
"HX c #DDF4F2",
"JX c #E2ECE4",
"KX c #E5ECE7",
"LX c #E2F5F5",
"PX c #E8EDE6",
"IX c #EBDDDB",
"UX c #C4C2C3",
/* pixels */
"eXeXeXeXeX0X0X0X0X0X0XqX0XqXtXtX1XUXUXUXUX9XUX1X9X9X9X1X2X2X2X=X+X=X1X1X1X1X6X2X2X:X2X:X:X:X:X|.:X|.|.I.C x l ) Q Q W J J F F J ",
"iXeXeXeX0X0X0X0XqXqX0XqXqX9X9X-X+XA S n S S c S A S n S v c n c c c u n n n p p u S =Xx.x.:X:X|.|.|.R.I.C j ( _ I Q T T J J J F ",
"iXiXeXeX0X0XwX0XwXwXqXqXiX=XA % < c 1 5 6 1 1 5 c 5 c 6 u 5 3 v 6 6 6 c 1 v v 5 u 3 c u u u u x.-X|.Q.x.C l P _ I Q E E E J J F ",
"iXeXeXeX0X0X0X0X0XqXqXsXQ.S n v c 1 1 ; 6 6 n ; 5 < c 6 6 5 & 1 6 6 6 : 4 6 c 5 u 6 3 1 u 3 3 4 n Q.R.x.C z ) _ I Q E E E J J F ",
"iXrXiX0X0X0X0X0X0XiXtX-Xv 5 3 6 6 > 1 O 1 > < ; 1 6 > o % o & 1 < 6 ; 1 ; 1 < 6 1 u % % u , % % : u Q.x.x x ) _ I Q T J J J J J ",
"iXiX0XdX0X0X0X0X0XeXtXA 1 6 1 c 1 < > ; ; ; O 6 1 ; ; ; > & 1 X # > # o ; 1 < > 3 % o 1 % 3 % O 3 % x.I.x.x ) _ ] ] ~ K K K H H ",
"iXiXiX0XiX0X0X0XeXqXqXb 6 ; ; O > < > ; # O 5 ; ; ; ; ; o o X : ; ; # > o > < # % % * 3 > 4 % % 3 u u x.C x ` ' S.| [ [ [ ] ~ ~ ",
"iXiXeXeX0X0X0X0X0XeX9X+X1 ; ; 1 > X > 1 O O ; X ; < 1 ; o , 1 & > 3 > # > # # > * % % > > , , 1 X % , b C x c.D.H.b.H.b.v.v.[ v.",
"sXiXeXeXdX0X0X0X0XeX0Xp % % % : o 1 O o # # , 5 3 , , , 2 4 q 4 q 4 * 2 6 2 & * 2 * , < , 1 : : * 3 * 4 Z ` c.D.P.F.Z.C.B.B.B.B.",
"iXeXsXeX0X0XdX0X0XeXiXb & % : : > ; 1 # * , 2 4 2 2 = q s a j m s s s s a a 4 2 * * * & & % % : * 3 & 4 s ` c.J.P.L.L.K.F.Z.M.A.",
"pXeXeXiXeX0XdX0XqX0XtXA . . % o o . o # = = 7 q w C C C 8.7.(.7.7.3.C C 3.I.I.3.w 2 * . * X % % * X X * = c.D.G.P.L.L.L.Z.Z.M.M.",
"sXeXiXiXeXdX0X0X0XeXtXm % X O O O . # e V m B :.p.^.(.(.~.~.R.`.~.~.|.}.(.E.Q.(.7.B s 7 = # * # . X X X X ` D.G.P.L.L.K.Z.Z.M.M.",
"iXiXiXeXtXdXdX0XiX0XqX4 X . X % O # 2 V u.p.i.d.^./.~.!.U.T.T.T.~.`.~.XX~.~.~.T.E.7.4.8.C a 8 + * % . * - I.D.G.P.L.L.V.Z.M.K.M.",
"iXiXiXeXiX0X0XiXqX0XiXp X # % . # q a 3.E.].!.!.!.!.!._.`.Y.T.T.T.~._.}.~.~.U.U.q.q.q.7.7.7.C q + X . . - ' D.B.F.Z.V.M.M.M.M.M.",
"iXiXiXiXeXeXiXtXiXtXqXb * 2 % % * 4 m p.[._.!.)._./.r./.~.U.`.`.~.~.(.~._.~.T.Y.q.9.-.9.7.Y.4.m = * X . - 8.} S.B.B.V.V.V.V.M.M.",
"iXeXiXiXiXiX0XiX0XiXqXb u p 4 u e q m p.]./.).).!./._.!.!.~.U.~.~.~.~.~.R.~.Y.Y.;.9.9.9.9.5.Y.3.s * . . - ` ' v.b.B.C.V.V.M.V.M.",
"sXeXiXiXeXiXyX0X0X0XtXb v p V b b M C p.{.]./._.).k.d.f.q.t.r.`.~.`.~.~.Y.Y.q.q.9.9.` ;.;.;.Y.4.j 4 * + 8 ) ' [ m.m.C.J.V.K.N.N.",
"aXiXeXiXaX0XyXwX0XiXtXb W.S A A u.3.E.E./._.f.!.!.r.r._.`.r.t.e.U.e.!.U.;.Y.Y.9.9.9.9.;.;.;.;.8.C C q = 9 ) ~ S.G.C.Z.J.K.N.N.N.",
"aXsXeXiXiXeXaXeX0XqXpX+X+X+X+XW.@XW.[.[.`._.T.T.T.U.`.U.r.U.e.q.q.e.!.Y.Y.Y.q.q.t.9.;.;.;.;.I.;.3.I.m i i ` } S.G.F.L.J.K.N.N.N.",
"pXeXiXiXdXdXyXeX0XeXtX-X=X>X%X#X#XW.(.^.!.r.U.U.U.T.T._.!.e.~.`.!.~.).U.U.Y.Y.Y.t.q.;.;.;.;.;.;.E.E.3.l w ( S.D.F.J.J.J.N.N.N.N.",
"pXiXiXiXiXyXeXeX0XeXtX2X%X>X;X#X#X}.[.^./.!.!./.!._.}.`.d.`.`.`.`.!.(.(.(.~.}.T.U.t.t.9.;.;.;.;.I.E.E.8.d ' S.G.P.L.J.N.A.m.m.N.",
"iXiXiXiXeXeXaXeX0XtXrX<X>X=X#X&X*X[.}.^.[.{././.].]./.!.!.t.`._._._.~._._._._.U.U.t.t.t.0.4.;.7.7.E.(.E.x c.D.P.L.J.C.m.m.m.m.N.",
"iXiXiXiXaXeXuXeXyXwXbX<X2X%X&X@X#X[.[.[.*X[.[.'.W.a.p.7.d.d.d.!.).{./././././._.^.e.!.!.!.Y.7.7.I.E.i.E.` c.G.P.J.J.m.v.v.v.m.A.",
"iXiXiXiX0XyXpXuXwXwXbXhX>X>X%X&X$X}.[.@Xg.$.M q d w q w N &.4.q.w.6.<.s.w.w.w.4. .$.&.l &.7.(.7.4.E.i.^.R.D.OXP.C.B.v.[ [ v.m.C.",
"iXiXiXiX0XyXyXuXfXuXxX6X1X,X%X*X[.[.'.g.g.4.p.p.i.g.7.M l N %.%.#.=.-.-.*.=. .d 8 8 j d d i j &.7.E.i.(.R. XOXF.G.v.] ~ [ v.m.N.",
"iXdXiXdX0XyXyXuX[.E.u.<X,X,X*X$X[.'.[.{.{./.h.h.h.h.^.^.d.#.%.*.5.-.-.-.-.*.l #.8.E.(.E.I.3.l &.6.7.(.I.XXXXOXG.v.[ ~ L [ v.C.N.",
"aXdXiXiXyXyXwX7Xw a.V 6X,X&X*X@X[.d.{.{.{.f./.j.4.d.^.4.8.=./ -.9.( 9.-.( *.=.8.6.!.^.d.5.4.4.7.7.;.Y.(.4X XoXH.} ] L ~ [ m.N.M.",
"aXdXaXiXyXwXwX$Xr 1.a.6X,X%X3X@X{.g./.{./.s.6.r $.&.&.f d #.( ( ( 9.( -.( ..*.5.#.#.%.7.e.,.6.e.8.7.I.(.4X( oX| { R H ] v.b.C.M.",
"aXaXdXiXdXwXyXE.9 l.a.UX5X3X&X*X^.^.,.6.M d $ @ 7 @ $ $ 8 d l ( ..<.y.....o.*.g w - @ 7 8 B 7.,.U.7.8.3.4Xt z.} ] H L ] v.B.Z.A.",
"aXaXdXiXdXdXyXi.r l.l.uX3X3X@X*X{.$X].].].^.].E.a.3.C l ..@ h ( <.<.y.2.o.^ y 7 g i d i d @ r d.4.4.7.E.7Xy } { T T R [ v.B.Z.M.",
"aXaXdXiXdX0XwX[.h 1.M 6X3X&X%X$X{.{.{.{.f.k.^  ...o.o./ k ^ k -.0.f.`.-.<...5.%./ 4.8./ #.6.!.`.6.3.E.W.4X9 { Q W T R [ n.C.A.M.",
"yXaXaXdXdXwXwX4X) +.g uX6X3X3X*X}.*Xh.).).j.k.j.h f 9 r h O.*.<.y.r.`.<.-.( #.../ h ( h *.5.r.0.~.'.a.'.8XP { W T R ] | b.C.M.M.",
"yXdXaXdXwXwXwXwXM h t fX5X,X,X*X].g.g.g.j.1.w.j.f.k.r.k.j.*.0.t.k.`.`.y.-.-.( 9.0.<.<.w.w.0.5.5.5.^.'.$X*XP Q ! W T ] | b.A.A.N.",
"aXaXaXdXdXwXwXfXt g g 6X6X5X,X@Xa.g.s.s.s.1.w.w.f.`.d.d.0.w.0.k..X)..X`.9.9.y.-.y.j.k.k.j.j.5.=.8.d.'.}.g.+.I ! W R R } | n.m.m.",
"aXaXdXdXaXdXdXwXo.>.V 5X,X,X&X@X@Xl.g.1.2.w.h.).!.).d.q.w.!.{._.)._..X`.0.q.t.0.r.w.).).).s.5.6.2.p.a.$Xa.@.I ! W W Q ] ] [ [ [ ",
"aXdXaXdXaXaXtXyX1.V a.6X5X,X%X@Xh.h.h.{.{.{.k.k.f.w.6. . . .s.f.{.)..X`.;.5.-.-.<.w.l.k.k.).w.6.d.p.[.$Xl.z.I ! W E T R R ] ~ ] ",
"aXaXaXdXeXeXeXyX*Xa.a.5X3X3X&X&X'.g.g.*X).].w.2.<.O...t o.l.k.l.k..X.X`.r.*.) 9 *.<.y.j.j.y.6.q.i.4.'.g.X.y.! ! W E T K H H H G ",
"aXdXaXdXeXaXtXuX&XX.5X5X3X&X*X*Xh.@X].{.h.w.2.2.o./ f f s.l..X.X{.f.k.w.0.).r.^ t O.O.*.o.-.-.=.4.p.W.[.y.@.! ! W E E J F F G G ",
"aXiXdXdXsXeXtXbX@Xa.5X5X3X8X$X*X[.h.h.g.s.1.*.*.^ h f r 2.g.{.l.f.y.0.-.<.).0.^ 9 ) ....O...*.-.=.6.p.*Xl.@.! ! W E E J F F K D ",
"iXsXpXiXsXrXgXDX%Xa.6X,X&X&X$X*Xg.h.h.w.1.>.O.o.h r o.h t >.>.1.j.>.o.*.=.*./ ^ 9 f o......./ #.,.4.E.{.l.I ! ! W W E E J F F D ",
"nXSXFXNXFXKXDXDXKXUX6X,X3X3X*X*Xh.g.s.w.2.O.o.o.r M M X.M g g t f ..^ 9 w y h ^ f r k ^ ( / ../ %.,.u.]..X@.! ! W W E E E F F D ",
"DXDXFXvXDXKXFXFXDXbX6X3X%X3X$X*Xh.g.j.1.2.O.^ ) r r M X.X.X.o.M r r f r t M ..X.f 9 h ^ ^ ^ / / #.=.p.{.l.I ! ! ! W E E F F D D ",
"HXDXFXFXDXDXFXFXDXcX,X,X%X$X&X{.g.g.s.2.-.O.^ t t B o.o.a.2.1.>.^ ^ O...>.>.X.o.f r r h ^ / ( #.$.=.1.{.I I ! ! W W W E F F D G ",
"HXDXDXFXDXFXFXFXDXcX,X%X%X*X*X{.g.g.s.y.<.*.o.h r t M >.+.V t g h h M h o.:.X.o.t r r ^ k ..` #.&.$.s.8X@.I ! ! ! W E E F F G G ",
"LXLXFXFXFXFXvXFXDXFX3X%X$X{.*X{.l.s.w.w.<.*...o.M g 7 7 g p.a.M g g g d i i 7 r w g k  .k #.#./ %.=.,.0.@.I ! ! W ! E E E F G G ",
"LXLXDXFXFXvXFXcXFXIX%X@X*X{.*X].g.w.w.w.<.*.....N w       W.$XB (.i $X3.'.C   + d l  .#.#./ / #.*.8.^.4.+.I I I E W E F F F D D ",
"HXHXLXDXFXvXcXcXvXFX<X@X}.].{.h.g.1.<.<.<.*.....M w g + g q 7 @ j i Q.- - @   w l M  ... ...#.#.%.8.#XZX5X1.+.I I E ! E F F D D ",
"HXHXLXDXFXvXcXcXFXvXbXW.[./.h.l.s.s.1.<.=.#...N j h $.g g '.V a.i.3.8.$.C @ :.:.k M $...#.#.( #.%.u.ZXVXIXCXCXIXl.U P U U F Y Y ",
"HXHXHXDXKXvXkXcXcXvXxX#XE.g.f.h.j.w.6.<.>.X. .h k k o.*.M g g V X.:.o.f g g %... .^ ( #./ #. .C :.+XVXVXMXMXPXIXCXCXCX4Xt Y Y Y ",
"HXDXDXDXSXvXkXcXcXkXxX6XW.p.f.e.e.<.<.<.>.%. .k k ^ ^ 2.X.+.2.>.g.2.a.p.o.h o.^ ^ ^ ( / /  .N :.u.bXxXnXMXSXSXSXmXPXPXCXCX8Xt t ",
"DXDXDXKXSXvXkXcXbXbXbXxXW.p.p.w.e.w.<.<.2.>. .k k o.O.O.2.+.o.h M M o.f h +.o...#.^ %.^ $.$.$.3.:XlXlXBXmXnXVXJXKXJXJXMXVXCXIXCX",
"DXDXJXAXmXvXcXzXkXcXhXxXtXu.p.7.i.w.<.<.,.*.$.k k %.*.+.1.1.X.o.k ^ o.o...o. .*./ ( / #.k C $.I.:XsXpXpXlXNXvXmXmXAXSXSXJXVXPXVX",
"JXJXJXSXMXmXlXzXgXbXbXhXbX&Xu.u.6.w.1.4.,.:.&. .:.%.2.O.X.o.o.^ f r h ^ k %.<.>.^ / / C 3.C u.7X0X-XxXjXjXjXNXvXSXFXGXSXAXJXKXKX",
"KXJXJXMXMXVXMXkXgXhXrXhXsXtXQ.u.p.p.6.2.,.%.&.$.%.2.2.1.1.1.s.w.j.j.j.1.5.2.6.5.&. . .N &.Z [.:XBX9X-XxXxXxXzXnXNXMXMXSXSXJXDXKX",
"KXJXJXJXMXMXMXnXgX9XhXhXtXrXtXA u.1.7.4.,.8.%.%.1.g.2.2.j.h.h.w.d.j.j.j.<.6.e.4.l $.&.C 3.}.Z :XMXBXtX-XsXlXlXlXnXMXMXSXSXJXKXAX",
"LXJXJXGXMXMXMXNXzXgXgXrXhXrXpXuXZ Z :.7.2.=.8.%.,.6.g.a.s.1.1.2.<.w.6.6.d.7.8.8./ l l 3.E.m Z <XBXMXBXpX>XjXpXlXlXnXMXmXSXGXFXJX",
"DXGXGXGXGXSXMXmXnXgX9XrXrXrXrXtXqX;Xm :.3.4.*.#.%.4.,.:.:.%.%.X.%...%. ... . .&.C l 8.E.3.a I.<XBXnXVXnXNX=XiXlXlXBXnXNXMXMXGXGX",
"DXDXSXGXGXSXSXMXvXkX9XrXrXrXrXrXjX6X#Xm :.8.,.=.o.%.3.1.X.B o.o.h o.h M N l &. .l 8.3.3.I.C Q.6XNXMXMXVXMXBX-XiX9XlXBXMXNXGXMXMX",
"SXSXSXSXGXMXSXSXmXvXrXrX9XpXrXrXgXxX<X%Xq $.4.4.o.$.N :.3.:.o.o.$.M $.N k $.z l &.7.3.j I.C =XqXBXMXGXMXMXBXnX2XBXlXlXBXmXVXGXMX",
"SXDXSXSXSXSXSXJXSXmXzX9XpX9XpXrXgXzXjX:X#X+ B :.:.8.B N B o.o.:.%.N o.B z k N ,.4./ C m W.A =XeXnXMXMXVXVXMXMXBX=XlXlXBXvXmXSXSX",
"GXSXSXSXAXSXSXJXSXNXnX9X9XpXzXpXgXgXlXrX<X+X+ g o.:.$.:.l C  . .M N l l  .#.:.&.l C N - Q.Q.<XjXBXnXSXMXMXMXMXMXGX=XnXBXvXnXSXAX",
"GXSXSXSXFXSXAXAXmXcXMXkXzX9X9XzXzXzXkXgXrX1XW.= q h B $.&.&. .o. .l #./  ...k k k N j 7 W.:XrXjXMXnXMXGXVXJXMXMXMXMX9XlXnXvXMXMX",
"GXMXMXAXSXFXFXFXnXcXnXnXzXpXzXpXrXkXzXlXkXrX,Xa.q w w w d l l N N k z h f f h / N B 8 j +X<XrXnXmXnXMXPXMXMXMXMXMXSXMX9XlXlXnXnX",
"MXMXSXAXSXAXAXFXnXcXcXSXlXjXlXjXzXzXzXlXkXkXtX,Xq w w r w 9 d 9 d d d f f z ^ h r i @ Z :X9XvXnXmXMXJXMXGXGXGXSXGXMXMXGXgXlXnXnX"
};
