/* XPM */
static char *_5576_96a323fe1e76d39e1a8fcad3ba3446d97c5d618bef18e3bf4526e7a5e86dc636[] = {
/* columns rows colors chars-per-pixel */
"64 64 218 2 ",
"   c #652535",
".  c #1F3A65",
"X  c #3B3F64",
"o  c #363D7D",
"O  c #3B3A79",
"+  c #582D4B",
"@  c #4D2D5F",
"#  c #5E2D5B",
"$  c #47375B",
"%  c #5D3358",
"&  c #6B2E55",
"*  c #632B52",
"=  c #643351",
"-  c #542D6C",
";  c #4C356D",
":  c #483669",
">  c #5D3465",
",  c #54346A",
"<  c #5A3269",
"1  c #563768",
"2  c #443673",
"3  c #4C3473",
"4  c #443B77",
"5  c #4A3875",
"6  c #463C7B",
"7  c #563775",
"8  c #682F62",
"9  c #623C6F",
"0  c #723362",
"q  c #633D70",
"w  c #1E4276",
"e  c #1C447D",
"r  c #2B456D",
"t  c #274466",
"y  c #264575",
"u  c #284373",
"i  c #2A4973",
"p  c #22447C",
"a  c #2B457C",
"s  c #26497C",
"d  c #294B7D",
"f  c #31457B",
"g  c #354775",
"h  c #48407C",
"j  c #5E5F7D",
"k  c #77426E",
"l  c #7C5363",
"z  c #78487B",
"x  c #6F5270",
"c  c #795078",
"v  c #B2343D",
"b  c #BB343D",
"n  c #B63D3F",
"m  c #BB383E",
"M  c #C52D36",
"N  c #CC2D36",
"B  c #C42D3A",
"V  c #CD2E3B",
"C  c #D22C36",
"Z  c #D22F3C",
"A  c #D92F3A",
"S  c #CD3236",
"D  c #C4333D",
"F  c #CD313C",
"G  c #C7353B",
"H  c #D13036",
"J  c #D0303C",
"K  c #D6363F",
"L  c #9E3C5C",
"P  c #BE2F41",
"I  c #AD3C44",
"U  c #A33E4A",
"Y  c #A63D47",
"T  c #B53644",
"R  c #BC3543",
"E  c #B53B45",
"W  c #BB3A44",
"Q  c #B1354A",
"!  c #BD364D",
"~  c #B53B4C",
"^  c #BB3B4B",
"/  c #AB3754",
"(  c #A33A54",
")  c #A63E5C",
"_  c #AF3C5B",
"`  c #B93651",
"'  c #B23C54",
"]  c #BC3C55",
"[  c #B43A56",
"{  c #AA3D64",
"}  c #C42E41",
"|  c #CD2F41",
" . c #C12E48",
".. c #D12E42",
"X. c #C43443",
"o. c #CC3242",
"O. c #C13A43",
"+. c #CC3A47",
"@. c #C2334A",
"#. c #C23B4A",
"$. c #C93648",
"%. c #D23242",
"&. c #D23846",
"*. c #8F484C",
"=. c #9B454D",
"-. c #99464C",
";. c #9F4253",
":. c #944D53",
">. c #9C415A",
",. c #994657",
"<. c #89505F",
"1. c #965458",
"2. c #AD4046",
"3. c #A3444B",
"4. c #A84449",
"5. c #B4424B",
"6. c #B94249",
"7. c #AC4652",
"8. c #A4435C",
"9. c #AA405D",
"0. c #A34952",
"q. c #B44452",
"w. c #BF4051",
"e. c #A85159",
"r. c #8B456D",
"t. c #89476B",
"y. c #954365",
"u. c #9B4365",
"i. c #9A4963",
"p. c #94466A",
"a. c #964A6C",
"s. c #984568",
"d. c #854571",
"f. c #894670",
"g. c #884B76",
"h. c #994A75",
"j. c #A04064",
"k. c #AE4160",
"l. c #B5666C",
"z. c #0C3F8E",
"x. c #2C3C83",
"c. c #243F8C",
"v. c #2C3D8B",
"b. c #273F85",
"n. c #333D81",
"m. c #3A3D84",
"M. c #373F8C",
"N. c #1D4483",
"B. c #16468C",
"V. c #1C458D",
"C. c #144B8E",
"Z. c #1D4A8C",
"A. c #0D4695",
"S. c #0E4A97",
"D. c #0E469A",
"F. c #0E4C9C",
"G. c #074898",
"H. c #144594",
"J. c #1B4595",
"K. c #134A95",
"L. c #1A4A94",
"P. c #14469B",
"I. c #1A469C",
"U. c #134A9D",
"Y. c #194A9C",
"T. c #19519D",
"R. c #13519E",
"E. c #234684",
"W. c #2D4284",
"Q. c #244986",
"!. c #24438B",
"~. c #2A438D",
"^. c #244A8C",
"/. c #294E83",
"(. c #354288",
"). c #244394",
"_. c #294191",
"`. c #234C93",
"'. c #22469A",
"]. c #2C469A",
"[. c #235094",
"{. c #384393",
"}. c #0F4CA1",
"|. c #1546A2",
" X c #1846A1",
".X c #1449A2",
"XX c #194CA2",
"oX c #1A4CAB",
"OX c #1950A2",
"+X c #1552A3",
"@X c #444385",
"#X c #7C4D81",
"$X c #728AB0",
"%X c #749CD9",
"&X c #C88889",
"*X c #F48991",
"=X c #FFCDD2",
"-X c #FFDDDE",
";X c #FFD1D2",
":X c #FFDCE2",
">X c #FFD6E9",
",X c #C3E6FF",
"<X c #DDFDFF",
"1X c #FFE4E5",
"2X c #FFE5EA",
"3X c #FFECED",
"4X c #FFEDF2",
"5X c #FBEEFE",
"6X c #EFF5FF",
"7X c #E4FDFF",
"8X c #ECFEFF",
"9X c #E3F7FF",
"0X c #FFF5F3",
"qX c #FEFBF6",
"wX c #FFF5FC",
"eX c #F4FEFF",
"rX c #FEFEFE",
"tX c #F2FBFB",
/* pixels */
"rXrXrXrXrXrXrXrXrXrXrXwXrXwXrXrXrXrXqXrXqXqXwX0X4X2X:X*XE E R m m W v 5.=X:X1X3X0X0XrXqXrXrXrXrXrXeXrXrXrXrXwXrXrXrXrXrXrXrXrXrX",
"rXrXrXrXrXrXrXrXrXeXrXrXrXrXrXrXrXrXrX4XwX4X2X:.=.3.5.E v O.D O.G O.b v 6.I 0.=.1.2X4XwXwXrXrXrXrXrXrXrXrXrXrXrXrXrXrXrXrXrXrXrX",
"rXrXrXrXrXrXrXrXrXrXrXeXrXrXrXrXqXqX3X3X=.I ^ R O.D b D o.X.| ..o.o.o.+.D D X.X.#.T q.-.4X0X0XrXqXrXrXrXrXrXrXeXrXrXrXrXrXrXrXrX",
"rXrXrXrXqXrXrXrXrXrXrXrXrXqX0X0XqX1X:.Y W X.Z Z N K N F o.| %.Z Z ..Z N F V Z A ....X.^ U *.3XqX0XrXrXrXrXrXrXrXrXrXrXrXeXrXrXrX",
"rXrXrXrXrXqXrXrXrXrXrXrXeXqX0X1X3.n n R o.Z Z Z Z Z F F J F V N Z F F F S G J K Z ..Z o.R v 5.-.3XqXqXrXrXrXwXrXrXrXrXrXrXrXrXrX",
"rXrXrXrXrXrXrXrXrXrXrXrX0X0Xl.I O.K S F Z Z %.Z ..V %.F N S S K K J F F F F V V ..C Z Z N F F O.3.-X0XqXqXrXrXrXrXrXrXrXrXrXrXrX",
"rXrXrXrXrXrXrXrXrXtXrXqX2XU ^ b B N J Z ..A Z Z Z V %.F F K V N N N %.N %.V V Z Z Z %.J F F F M X.~ 3.3XqXrXrXrXrXrXrXrXrXrXrXrX",
"rXrXrXrXrXrXrXrXqXqX0X2XU R +.F J V K Z Z Z Z Z J F V o.%.V V %.o.N J Z V %.Z Z %.Z J F J Z V Z Z o.T 0.2XwXqXrXrXrXrXrXrXrXrXrX",
"rXrXrXrXrXrXrXqX0X4X=.~ #.o.F V Z ..Z Z V F S S J H J J ..V | F | F F | F J F J H C J J ..J ..Z Z o.R W ~ ;.4XqXqXrXrXrXrXrXrXrX",
"rXrXeXrXrXrXrXqX3X3.^ B N %.Z | ..Z ..F F F F S S H Z C J Z o.| | ....F F F F S F F F F V F J ..J N F D X.^ -.4XqXrXrXwXrXrXrXeX",
"rXrXrXrXrXwXrX0X3.R } F J Z J J F F J F F F F F F Z J J Z Z H J J V J Z J C Z F S F G F F F F Z V %.J K o.b W =.0XrXrXrXwXrXrXrX",
"rXrXrXrXrXrX0X-X~ B %.J H S J J H S F F F F F F Z Z C Z J H H S F S F Z Z Z Z J F F F S F F F J V J Z N S G D 5.1XqXrXrXrXrXrXrX",
"rXrXrXwXrXqX1X7.R N C H N F N J Z H Z N J J Z A Z Z C A A Z H H J H H Z Z Z Z J Z J Z A Z H C S &.V %.C K N F ^ =.3XqXqXrXrXqXrX",
"rXrXrXqXrX3X7.W D o.K N K S J H Z Z A Z Z C Z Z A Z Z Z Z Z Z Z Z Z Z Z J V ..Z ..Z Z Z A Z A Z N V A A C S F D E =.0XqXrXrXrXrX",
"rXrXrXqX3X*.T $.o.M F F N V K C Z Z Z Z F Z ..F V F F Z V ..J Z J Z | o.o.o.J F F F J Z F Z Z F F %.Z V J %...%.| ^ -X0XqXeXrXrX",
"rXrXeX0X2XI $.V F F J J J Z Z Z Z %.V Z F F F F o.F o.V %.V ..Z | ....J Z V F F F F F F V Z Z J F V N V o.V Z Z Z X.3.3XqXrXrXrX",
"rXrXrX0X7.R D V V J H J Z V A Z Z F J J J J Z F F F F Z F J Z ........Z Z H F F Z Z F F Z Z Z Z ..| F G S F Z Z J o.#.0.0XrXrXqX",
"rXrXrX4XI V F F F F Z Z Z J Z Z Z J V J J J Z F Z J J J F Z J V ..Z ..Z A F F F Z Z F F J Z Z Z ....F F S S Z Z V F o.5.4XqXqXqX",
"rXrXwX  ^ %.V ..F S Z Z ..V Z Z F J F J J J J J Z J Z J J F Z J C F F o.V F J S Z Z F G F F H Z A Z F S N J Z A %.Z J E *.wXrXrX",
"rXwX5Xi.R %...V H F F J F o.o.Z J Z Z J Z Z F J F J J F Z J J J S S F | o.F S H J | o.F F S F J A C Z S Z A ..Z Z ..J b 3.2XwXrX",
"rXwX+ u.R Z %...Z C J Z o.V o.J J V J Z F F Z J J J Z Z Z F J F F F F F V F H J J F | | | F Z Z Z C J J H J ..Z F F Z o.T e.wXrX",
"rXrX= u.R J V V Z A Z F o.o.F F J J J F J Z J J Z F F J J Z %.F J F ..J F F H J Z ......| F J Z Z J S F Z J Z Z S F ..Z G 2.0XrX",
"tX5X% >.W M F F ..Z Z J V F F F J J J J J F F Z J J Z J F Z J J ..Z Z H F F Z ..Z Z ..Z V o.Z H F G F F Z Z F F K F Z Z G n 1XqX",
"8X$ + i.^ G S F ....Z F F F F F J J Z F Z Z J J Z J F F Z J J J J J C A F F | | $.@.@.^ ~ ~ ^ ! R D G F J Z Z F V J C J F E &X0X",
"7XX % y.~ M K S Z ..| F H H J J Z Z F Z J J J J %.J J J J Z J J o.F J J F G X.R q.j.u.p.f.f.a.p.>.7.R V %...H F | o.V J F R =.3X",
"<Xg @ t.] J S N Z ..| Z H H C F F J J J V J J J V J Z J F J J F o.G F F } ` { s.& % 1 ; 5 6 5 , > * y.) ` @.V F &.| %.F V O.7.:X",
",Xa : t.#.C V o.| | F Z H H Z Z F Z J F J J J Z J J F J J J Z F F V C +./ h.- 6 o W.~.!.).J.c._._.v.M.3 #Xs.T o.| V F +.K b ' >X",
"N.W.n.z ` Z F D | Z F J H A Z J J J J Z Z F J J %.J J Z J V Z F o.X.#.( 0 3 {.).Y.K.U.F..X}.|..X|.oX|.].o - h./ X.F o.M N o.I >X",
").V.~.7 { o.o.V F Z S F Z Z Z ..Z F J J J V J F J F J Z J J F V N ` h.7 M.c.I.Y.U.R.U.}..XU.U.U..XP.U.I.'.W.4 k ' N F F F +.^ 6.",
"H.J.I.o h.@.$...J J H S F Z | ..Z Z Z F J J J J Z V F Z J J Z $.] u., v. X|.U.P.U.U.}.}.U.U.U.U.K.P.U..XU.P.V.h y.^ G Z o.B b n ",
"Y.U.U.(.# { } Z J S F F H Z | | F J J Z J J Z J V V J J J Z J ! a.: (.Y.U.F.T.K.U.U..X.XXXY.K.K.R.F.U.P.D.+XY.W.: g.` ..Z o.m n ",
"P.U.R.N.h f.#.V S F F Z Z F o.| ..J F F J J Z V %.F J Z V F X.) 1 W.`.D..XU.K.L.P..X.X|. XY.R.S.U.U.U.U.U..XD.'.v.; j. ...F m W ",
"P.R.S.Y.).3 >.R G F Z ..N F V V Z Z F F S C Z ..o.D N K Z } _ d.O J.U.U.U..XF.U.U.U..X.XU.P.U.D.U.U..X.X.X}.U.I. Xm.& j.$.F R E ",
"U.U.D.U. Xx.% 8.T G %.C &.V %.Z Z F F F S C Z ..X.F K N o.[ r.5 !.P.U.|.U.I.U.U.U.U.U.U.U.U.U.U.F.U..XI.U.U.U.I.|.].2 a.^ F D W ",
"H.L.Y.U.P.'.n.9 L X.V Z Z ....Z V F V F Z C Z Z %.| J o.Q h.4 !.J.U.U.F.U.U.U.U.U.U.U.P.U..XU.U.}.}.U.I.U.L.U.U..X'.W.1 q.F R 6.",
"L.Y.K.Y.J.Y.'.m.g./ ^ } ..%.Z %.Z o.Z J J H Z Z | @.^ ) r., !.I.P.U.U.U.U.U.U.U.U.U..XF.U.U.U.}.}.}.F.U.U.K.U.U.U.U.L.2 8.R E 2.",
"[.L.K.Y.Y.J.I._.f < s.] $.V Z N F J J H F F Z V $.[ y.9 @X~.H.I.U..XU.U.U.U.U..XU.U.U.U.U.U.U..X.X.XU.U.S.R.F.U.D.U.I.(.p.5.4.=X",
"%XZ.K.P.P.Y.I.P.'.n., d.L ' ] R ! R X.D R W ~ ' L r.; x.J.U.Y.P.U.U.U.U.U.F.U.U.U.U..XU.U.U.U..X X.XP.U.R.S.U.U.F.+XP.M.& L =.-X",
"7XQ.L.U.U.F..XY.I.J.^.a 4 1 l p.y.{ u.j.u.s.f.#X5 o ~.B.Y.K.D.U.U.U.U.U.U.U.U.U.U.U.U.U.U.U.U.U.U.I.U.I.U.U.U.F.F.G.XX~.> i.:.2X",
"7Xy L.F.}.}.}..X.XP.F.K.J.~.O 3 1 < < < - ; 4 n.).U.P.P.U.T.F.F.U.U.F..XU.U.U.U.U..XF.U.U.U.U.U.K.Y.I.P..XF.U.U.+X}.K.~.7 g.t.3X",
"eXr N.S.F.F.}.XX.XI..XF.I.Y.)._.c.!.~.~.v._.).J.U.U.Y. X X X}.U.}.U.U.U.F.U.U.U..XU.U.U.U..XF.U.K.K.I. X.X.XF.U.U.I.U.~.7 g.l wX",
"eX9XZ.R.S.R..X.XI.U.}..X.X X|. X.XU.U.P..X.X}.}.F.U.Y. X X X.X.X.XU.U.U.U.U.U.U.U.U.U.U.U.U.P.U.K.P.U.|.|.}.U.U.XXD.T.c.- c 5XqX",
"rX8XQ.U.U.P..XU.U.U.F.U..XI.Y.J.U.U.K.U.U.U.U..XU..XU.U.I.U..X XU.U.U.U.U..XU.U.U.U.F..XU.U.U.U.F.F.F..X}.}.F.U.I.P.U.`.3 z rXrX",
"rXeXw Z.Y.U.I.S.U.K.F.U..XI.K.L.J.Y.L.U.U.I.U.I.U.U.U.U.F.U..X.X.X.XF.U.U.U.U.U.U.U.U.U.U.U.U.U.F.F.}.}..X.XU.U.D.OXD.E.; x rXrX",
"rXeX7XN.L.P.K.I.U.K.U.U.}.}..X XY.L.T.K.L.I.Y.I.U.P.U.K.U.U..X.XI.F.F.U.U.U..XU.U.U..XU.U.U.U.F.R.}.F.F.U..XI.U.F.A.K.~.: wXrXrX",
"rXeXeXi Z.+XU.U.U.I.U.U.}.}..X|..XU.K.K.P.Y.U.U.U.U.K.U.U..X.XU..XU.U.U.U.U.F.U.U.U.U.U.U.U.U.U.}.F.F.U.U.I.I.F.U.R.K.E.j rXrXrX",
"eXrXeX7XN.P.U.I.P.I. X.X}.U.U..X.X.XF.S.P.I..X}.F.F..X|..X.XK.K.U.U.U.U.U..XU.U..XU.U.F.U.U.U.U. X.XU.U.U.U.I.U.U.K.J.a 6XrXrXrX",
"rXrXrX8X/.K.P.U.U. X.X.X.XP.U.I..X}.F.S.U.P..X.XU.U..X.X.X.XK.K.P.U.U.U.U.U.U.U.U.U.U.U.U.U.}.|. XXXU.U.U.U.U.U.U.K.!.. rXrXrXrX",
"rXrXrXrX7XE.L.H. X.XP.XXI.D.XXU.}.F.F.F.U.U.U.U..X.X X X.XU.P.K.K.K.U.U.}.I..X.XI.I.U.U.U.U.U..X.X|.}..XU.U.Y.I.H.Z.a 8XrXrXrXrX",
"eXrXrXtXeXr E.Y..X.XK.U.P.XXP..XU.F.U.U.U.U.U.U.U..X X.X.XU.U.U.U.F.U.I.I..XI.U.U.Y.U.K.U.U.U..X.X.XXXA.T.K.P..XJ.Q.7XeXrXqXrXrX",
"rXrXrXrXeX8Xw L.I.F.U.K.T.I.|.P.I.I.I.U.U.U.U.U.U.U.U.U..XU.I..X.XI..X.X.XU.U.U.U.U.U.Y.P.U.U.K.U.U.H.U.R.S.U.U.`.d 8XeXrXqXrXrX",
"wXrXeXrXrXeX7XN.K.P.K.R.S.D.XX.X.XU.I. XI.U..XU.U.U.U.U.I.U..X.X.X.X.X.X.XU.U.U.U.U.U.U.U.U.U.P.I.U.K.K.S.F.S.B.e 8XeXrXqXrXqXrX",
"rXrXrXqXtXeXeX<X^.OX}.F.S.R.U.Y.|..X|.|..X.X.XU..XF.U.U.U.F.U.U..XU..XU.U.F.U..XU..XU..X.X.X.X.XU.U.R.S.G.F.XXN.8XeXeXrXrXrXrXrX",
"rXwXrXrXqXeXrXeXa B.D.F.R.S.H.I..X.XoX|..X}..X.XF.U.F.U.F.U..XU..XU.P.F.U.U.U.F.}.U.}.}.}..X.X.XU.P.F.F.F.K.N.f 8XrXrXqXrXrXrXqX",
"rXrXrXqXqXrXrXrXtXf `.P.F.U.U..XI.}..X.X.X}.F.F.D.F.R.F.U..X.X.X.X X.XU.F.K.U.F.F.F.F..X.X}..XU.I..XF.F.K.^.g tXrXrXqXtXrXrXrXrX",
"rXrXrXrXrXqXrXrXrX8Xy Z.U.I.I.U.P.F.U.F.U.U.F.U.U.U.U.U.U.U..X.X.XU.U.I.U.K.K.F.U.U.F.U.F..XU.P.I..XH.L.Q.u rXrXrXrXqXrXqXrXrXrX",
"rXrXrXrXrXrXrXrXrXrXeX8XQ.L.U.U.P.R.K.K.K.P.P..XXXU..XI.I.P.Y.U.K.U.K.U.U.I.Y.P.P.P.U.U.U.U.U.U.I.Y.V.p 9XeXrXrXrXrXrXrXrXrXrXrX",
"rXrXrXrXrXrXrXrXqXrXrXeX9Xp ^.L.K.K.S.S.T.U.U.P..XXXI..XP.T.U.K.K.K.R.I.U.P.oXP.XXY.U.P.K.U.U.Y.V.Q.s 7XeXrXrXrXrXrXrXrXrXrXrXrX",
"rXrXrXrXrXrXrXrXrXrXtXrXeX8X. Q.H.U.U.XXU.P.XX.XF.D..XU.U.U.G.XXU.U.U.F.+XU.H..X.X.XP.P.Y.U.I.Z.p $XeXeXeXrXqXrXrXrXrXrXrXrXrXrX",
"rXrXrXrXrXrXrXrXrXrXqXtXrXeXeX7X/.^.V.L.P.Y.|.XX.XXXS.U.D.R.I.P..X.XU.D.U.P..X.XI..XXXJ.`.!.N.d 8XeX8XrXrXqXrXqXrXrXrXrXrXrXrXrX",
"rXrXrXrXrXrXrXrXrXeXeXrXrXrXrXeX8X<Xu p '.H..XF.}.F.F.R.U.P.XX XoX XI.T.K.R.F.S..XP.H.`.p i 7X8XeXrXrXqXrXrXrXrXrXrXrXrXrXrXrXrX",
"rXrXrXrXrXrXrXrXrXrXeXrXrXrXqXqXrXeXeX7Xa Q.`.Z.C.C.C.C.K.I.XX X|.XXY.H.K.C.C.C.L.`.Q.i 8XeXeXrXrXrXqXrXrXrXrXeXrXrXrXrXrXrXrXrX",
"rXrXrXrXrXrXrXrXrXrXrXrXrXrXrXrXrXrXeXeXeX8X7Xt y d e C.Y.L.U.I.P.P.K.L.Z.e y i t 7X8XeXeX6XrXrXrXrXrXrXrXqXrXrXrXrXrXrXrXrXrXrX",
"qXrXrXrXrXrXeXrXrXrXwXrXrXrXrXrXrXqXrXrXrXeXeX8X8X<X<XQ.B.Y.+XD.I.z.L.Z.e 7X7X7XeXeXeXrXrXrXrXrXrXrXrXrXwXrXrXrXrXrXrXrXrXrXrXqX"
};
