/* XPM */
static char *d5426f2bdf3640aaf98c0e66922cd600MHXmMlZQs1O93NBG[] = {
/* columns rows colors chars-per-pixel */
"64 64 253 2 ",
"   c #1A1D13",
".  c #1D1216",
"X  c #131110",
"o  c #270A06",
"O  c #36090A",
"+  c #3E1101",
"@  c #370B16",
"#  c #321A13",
"$  c #1E2217",
"%  c #1C2907",
"&  c #23261B",
"*  c #26291C",
"=  c #2A2C1D",
"-  c #252714",
";  c #2D341D",
":  c #312F14",
">  c #1A072B",
",  c #1D0234",
"<  c #1C0836",
"1  c #081A2B",
"2  c #2A082B",
"3  c #340E26",
"4  c #371328",
"5  c #210639",
"6  c #240A3D",
"7  c #2A0C3D",
"8  c #260835",
"9  c #340A35",
"0  c #2B1B3C",
"q  c #281637",
"w  c #341538",
"e  c #28152F",
"r  c #002637",
"t  c #122E32",
"y  c #272922",
"u  c #2B2D25",
"i  c #2C2E29",
"p  c #252622",
"a  c #2E3225",
"s  c #2E312A",
"d  c #293826",
"f  c #313525",
"g  c #33352B",
"h  c #35392C",
"j  c #3A3C2E",
"k  c #373826",
"l  c #2D2536",
"z  c #33293B",
"x  c #363A31",
"c  c #3A3D32",
"v  c #3A3638",
"b  c #352A2D",
"n  c #451704",
"m  c #441C16",
"M  c #471100",
"N  c #5C2C0C",
"B  c #7A3800",
"V  c #6D370F",
"C  c #473A37",
"Z  c #483130",
"A  c #531830",
"S  c #31411E",
"D  c #3B422C",
"F  c #384527",
"G  c #3E4133",
"H  c #3E443A",
"J  c #2C4037",
"K  c #43482D",
"L  c #43532D",
"P  c #424534",
"I  c #454A33",
"U  c #494C36",
"Y  c #4B4D3A",
"T  c #474638",
"R  c #4B5336",
"E  c #4D523B",
"W  c #495834",
"Q  c #51543D",
"!  c #53593D",
"~  c #544A37",
"^  c #77492B",
"/  c #5E5427",
"(  c #260C42",
")  c #2A0D43",
"_  c #290D47",
"`  c #340C46",
"'  c #261243",
"]  c #2C1245",
"[  c #2D1B43",
"{  c #2E144A",
"}  c #2E194A",
"|  c #251048",
" . c #321443",
".. c #31154B",
"X. c #32194C",
"o. c #371947",
"O. c #2F1850",
"+. c #341A51",
"@. c #351751",
"#. c #0D3746",
"$. c #342547",
"%. c #3B3543",
"&. c #362151",
"*. c #471849",
"=. c #511C4E",
"-. c #463B45",
";. c #53314D",
":. c #5C2E65",
">. c #1B535A",
",. c #345850",
"<. c #356A70",
"1. c #265A69",
"2. c #4B4945",
"3. c #584B4A",
"4. c #4E5241",
"5. c #525542",
"6. c #555944",
"7. c #58574A",
"8. c #564B57",
"9. c #5B5456",
"0. c #685A58",
"q. c #715851",
"w. c #53694D",
"e. c #6B6958",
"r. c #77685C",
"t. c #687556",
"y. c #70714C",
"u. c #675A66",
"i. c #774F6C",
"p. c #4B7672",
"a. c #6C6366",
"s. c #746867",
"d. c #7A7469",
"f. c #7F7471",
"g. c #6D706E",
"h. c #565260",
"j. c #8A531B",
"k. c #B46818",
"l. c #8A5731",
"z. c #936631",
"x. c #B27131",
"c. c #C3792A",
"v. c #866756",
"b. c #94694A",
"n. c #A4724E",
"m. c #836C72",
"M. c #877A78",
"N. c #8B766F",
"B. c #854D7E",
"V. c #748B5C",
"C. c #798766",
"Z. c #7D9466",
"A. c #738F76",
"S. c #59807B",
"D. c #BB8138",
"F. c #D08A1C",
"G. c #DB962A",
"H. c #D38E39",
"J. c #DA9737",
"K. c #CE892D",
"L. c #E29B29",
"P. c #E49B39",
"I. c #DAA337",
"U. c #E6A538",
"Y. c #E8A12B",
"T. c #8C885C",
"R. c #B39053",
"E. c #83996C",
"W. c #888777",
"Q. c #92837B",
"!. c #8B9A78",
"~. c #919175",
"^. c #8DA677",
"/. c #91A87A",
"(. c #90AD77",
"). c #B6B172",
"_. c #D79648",
"`. c #D19953",
"'. c #D8A748",
"]. c #CAA75B",
"[. c #D9A558",
"{. c #DDB457",
"}. c #E7AA47",
"|. c #E9B54A",
" X c #F5BA47",
".X c #E5B156",
"XX c #D8A967",
"oX c #CFB171",
"OX c #E7B266",
"+X c #D7984C",
"@X c #BAC17D",
"#X c #E4C55A",
"$X c #F7C54F",
"%X c #CEC376",
"&X c #EBCB68",
"*X c #377989",
"=X c #497C90",
"-X c #8D7785",
";X c #8B5B8D",
":X c #378599",
">X c #348DA5",
",X c #4B8792",
"<X c #79A48C",
"1X c #4898B9",
"2X c #5091A9",
"3X c #4DA3BB",
"4X c #68AFB6",
"5X c #6E9993",
"6X c #4DA8C9",
"7X c #5EACCC",
"8X c #6FC9EA",
"9X c #8D8683",
"0X c #978888",
"qX c #999787",
"wX c #9E9595",
"eX c #958E92",
"rX c #A49494",
"tX c #AC9B9C",
"yX c #A79899",
"uX c #A79393",
"iX c #99A786",
"pX c #9CB486",
"aX c #83AB92",
"sX c #A4BA8C",
"dX c #A9A898",
"fX c #A9B796",
"gX c #ADAE95",
"hX c #B39EA3",
"jX c #A89CA1",
"kX c #ADA4A5",
"lX c #B6ACAB",
"zX c #BCACAD",
"xX c #B5A7A6",
"cX c #B8B6A9",
"vX c #B8AEB3",
"bX c #BDB5B4",
"nX c #ADB9A1",
"mX c #C4B4B6",
"MX c #C5BAB9",
"NX c #C0AEB3",
"BX c #DDB281",
"VX c #B4C388",
"CX c #BCC3AE",
"ZX c #C7C2B9",
"AX c #D0C7BE",
"SX c #C8BDC2",
"DX c #D2BBC3",
"FX c #95D7EA",
"GX c #CCC4C5",
"HX c #D3CACA",
"JX c #D8CFD3",
"KX c #E1D8DD",
"LX c #E4DBE0",
/* pixels */
"D P f -     s s u & p p u y G c j h j T U K L K I L F % ; S F L F F S S d % H 4.P h = P Y U I L P U Y Y G a a f g g g g g i i s ",
"K P f &   $ a g u & p y u u G j P h j U K C F / R W : % % F W W L W S S = d P 2.G c - T Y R I K K U 2.Y G ; a a h g g g g i i s ",
"K K k &   & i g s & p y u u G G h h H Y I R / L L w.^.T.Z.Z.Z.Z.Z.Z.pX^.^.ZXiXA.U G * P 6.U K Y I Y Y U P y u f g g g g s s s s ",
"P P h &   & i g s & y u u a G D G k F W L L ! w.y.E./.E.Z.Z.Z.Z.(.sX(.pX/.fXnXdXW I f P Q Y ~ Y I Y 4.Y P = ; a f g s g x s s s ",
"K P j &   * g k s p p i u u H D D d D W F L w.y.y.V.(.(.(.(.(.(.^.^.^.pXfXfXfXnXt.Y * Y U Q Y U U Y Q Y T = a f g g s x s s s s ",
"K K j =   y g g s y y u u a G G F S D ! W y.V.V.V.Z.(.(.(.(.(.sXsXsXpXpXpXpXqX^.C.t.D E 7.Q Y E U Y Q Y U ; f f h g s c x u s s ",
"T T j =   y g g g u u i u a P G F S F w.V.V.V.Z.(.(.(.(.VXsXsXpXpXpXiXpXiXiX^.A.t.C.~.6.6.Y Y Y Y Y ! Y T a f f h h s g s u s x ",
"I K j =   p j g s u i u i d P D F S L V.V.V.E.E.(.E.(.(.pXVXfXpXiXiXpXiX^.^.iX!.C.C./.6.Y Q Y Y E R ! Q I = f f j h s a i i i x ",
"I U j * $ y c g x u i i i s G D F ; W t.V.Z./.E.iXiXiXpXgXgXgXsXpXdXdXpXiXqXiX!.W.iXgXC.e.Q R Y Y R Q 5.K ; = k h d h a i y k x ",
"I U j = $ y c g g y i i u d G G F F W W w.t.E.~.!.iXnXgXdXiXcXcXcXnXnXCXgXiX!.A.iXiXdXC.t.E E R U Q Q ! U f ; f a h g a y g g g ",
"P U c y $ a c x g u u i s g G D K F W ! ! y.iXnXnXcXZXcXcXMXmXZXZXcXZXbXcXfXqXiX!.iX!.t.6.W R R U R Q 5.U a = = * = y i u g x s ",
"I U G u   a c c x a i s s a H D F ; W E W iXnXcXMXZXZXcXcXlXbXMXZXZXZXZXAXcXgXwXqXW.t.I I 6.E E R Q Q ! T = - * = * * a g x s g ",
"I U c =   s x x x s u i s s P D L K L ! 5.qXcXMXMXZXMXkXkXvXMXlXbXvXMXZXcXcXnXdXiXW.t.D 6.W W R R Q ! Q U * * * *     u g j s x ",
"I U c = $ s x c x u i i s a P D ; F I R 7.qXnXnXMXbXMXMXmXlXyXbXkXMXMXZXGXcXnXdXdXW.! ; 6.! ! U Y Q 5.Q Y = f k =   - i s x g g ",
"U U j =   x c c x s u s s s T G k - I 5.~.mX0XwXM.0X0XjXjX9Xa.0.9X9XwXdX9XbXcXnXW.C.Y ; L ! R R Y Q 5.Q Y f g j j k g g x g g g ",
"U U j * $ x G c c s u i s a P F ; - U e.~.qX-Xf.a.u.a.kXjXyX9.C c s.mXlXlXcXZXcXW.e.Y * D E K R Q Y 6.5.5.f k c k f k g j g g x ",
"I Y j =   x c c x s a i i s P G D - D d.qXf.f.a.u.u.8.vXGXkX0.0.M.eXd.xXkXCXMXZXW.d.Q K k R Q R Q Y ! 6.5.a k h k d k k h h h h ",
"I Y j =   x c c G s i s s s G c k - k M.W.f.9Xf.u.u.7.JXHXvX=X%.X . C 3.W.MXMXcXd.e.Q ! I Y ! Y Q Q 6.6.E = d D d k d d k g h h ",
"U Y c = $ x c j c s u i s x H D h = j W.qXg.wXyXbXvXlXJXLXJXSXSXkXjXMXJXGXGXtXdXdXe.t.e.r.t.Y 5.Q ! Q 5.5.k h g f k k h h g g j ",
"U Y c = & j G c c s i u s s H c h ; U Q.dXyXcXlXjXjXbXKXGXHXSXSXSXGXJXJXHXAXdXcXdXf.r.d.d.W.Q ! Q ~ 6.6.E a g k ; d g h h g g j ",
"U Y j * $ x c G c s u s s a G h f a 4.C.bXMXyXlXbXvXvXKXKXJXSXSXSXSXJXJXHXHXcXrXtXN.d.W.0XqX! Y Y Q 6.6.5.f k s = a a k h h j g ",
"U E j & & x c G c s u s s s G G k - 0.s.cXZXbXHXSXbXkXJXJXJXeXvXvXGXHXGXGXbXtXxXxXqXqXdXdXW.Q 6.Q Q 5.6.4.k h f d d a a a h j g ",
"I Y c & & x x G x s u s s g G G k * f.9.0XbXMXmXvXSX-XwXeXeXkXeX9XwXvXlXzXxXdXuXxXgXdXMXgXt.4.U Q Q 7.6.4.= h h h k h f g g g g ",
"U E j & p x c c x s s s s g G h b = Q.W.M.tXlXzXvXjX9.9.u.%.9.yXlXeXkXwXrXuXuXtXtXuXAXAXbX7.5.Y 6.Q 6.6.4.u k f f f d h h j g g ",
"I Y c & & x c c c s s s s x c j k $ s.xXf.9X0X-X0XuXyXm.N.0XDXNXMXvXa.;.s.uXhXtXdXQ.AXcXe.Y 6.E Q Q 5.6.4.f = = * a g h h h h g ",
"U Y j & & x c G x s i s s x g g = # 0.qXr.m.-X0.-XuXyXyXuXxXDXDXSXvXhXs.0XtXtXxXyX9XmXt.5.4.6.5.E Q 5.5.5.f = * a a f f f f g g ",
"I E j & p x c H x s i i s x D g = $ = yXW.M.N.3.-X0XtX0.i.3.;.^ e Z m.uXtXuXuXtX0XN.3.2.5.E E E Q 5.5.5.5.g = u k h h h h h j g ",
"U Y j * y x c c x u y i s x G D a $ = T 0.-XuXhXm.Z Z 3 Z A ;.B.s.0XtXhXxXuXuX0Xd.N.T ~ T Y 5.R Q 6.4.5.7.k u s h h h d f h g g ",
"Y Y c & u j c c x s y i x x j h a $ a C C Q.uXhXM.N.;.Z Z 3.N.-X-XtXhXyXyXuX0XM.N.W.U Y Y K Q Q Q Q Q 5.7.g y k j j h h g k g g ",
"R U j & i g c c x i i s g x G j d - h k C W.M.Q.uX-Xi.v.q.m.-XuXNXtXNXtXyXuXrXN.d.M.T P I ! I ! Q ! Q 5.5.k f j G c j h h h h h ",
"Y U j & i j c H x u u i x x c j a = j T C 0.Q.M.hXhXhXuXhXNXNXDXmXmXNXzXtXtX9XQ.M.N.Z K ~ Y ! ~ Q Q Q 5.5.j h h j h k f g h h D ",
"E U j - u h c c x s u s s x c x h = j C C W.M.rXtXNXNXmXhXmXNXmXMXmXmXkXyXxX0XM.qXN.f ~ ~ Q ! R E ! 5.E E j j f g h h h h h h j ",
"2.Y j - u c x H s i i d s D h G x * k j h s.r.yX-XjXNXhXNXmXhXhXNXNXtXhXzXtX0XM.Q.Q.Z ! R R ! ~ Q 6.5.5.5.P f h j j k g h j h c ",
"Y Y j * s G v T x u d u s x c x g i g P C 0.0.uXyX0XvXkXhXhXNXNXgXNX0XxXNXuX0XN.Q.v.m ! Y 7.R ! ! ! 5.R 6.G k j c j h j c j g j ",
"Y H h * a c c c g i i i s v v G v s x C j C 0.q.uXtXa.s.v.s.=Xm.f.u.0XuX0XM.N.N.y.v.o ~ ~ 4.~ Q R ! E R 4.P g c c c j h h j j j ",
"W 4.k * g c G %.v l s l s v v v z b b z -.. o q.N.qXd.0.0.0.;.u.8.g.-X-XN.v.v.n.z.n.+ Z 3.0.5.5.Q 5.E 5.7.T k P c c c j j j j j ",
"2.2.h * s v v H x s l z z %.%.%.v z > . > . o 3.b.N.Q.r.u.i.u.u.a.a.f.r.v.v.n.l.x.n.O o -.8.9.7.4.7.4.2.7.H j c c c D g j c j D ",
"4.Y h y g v %.-.$.l z l $.z l e q > 8 < > 2 o v.^ ^ y.q.q.r.u.u.h.0.s.d.q.z.j.z.H.n.^ o 2 e l 8.9.8.7.2.9.H c C j G c j k x x x ",
"2.2.s i v %.%.%.l e q l z [ [ q < < < 6 5 2 O n.z.l.V v.v.q.u.a.a.u.y.l.z.j.x.H.H.x.^ @ 3 , q < e e z h.8.2.g v c c c x x x x x ",
"8.8.v l z l q q z [ [ } X.[ X.{ < 6 < ( 5 8 M b.n.k.j.z.^ v.a.u.a.m.v.z./ z.K.H.F.c.l.@ 2 6 < q q ' [ e z $.%.v %.C v v x x x v ",
"8.%.l > q l [ [ [ } X.} } } ..} ' < 6 6 , 2 O V k.k.k.j.l.l.3.%.l y r.R.R.I.I.G.F.D.^ O 9 8 < ' 7 ] } [ 0 0 0 e e l v %.2.v v %.",
"[ $.l [ [ [ &.&.X.X.X.+.+.@.@.{ ' ' 8 6 7 2 O l.c.k.c.k.x.b.  t #.%.fX).{.'.Y.L.G.K.l.O 3 ' 6 < ' ]  .} { ] 0 q 0 q e 0 $.%.%.-.",
"' 0 } } } } } } O.@...{ @.@.O.{ { ' ( 7 7 9 O b.c.c.c.H.+XoXx 1.<.p.6./ oX{.G.G.F.H.l.@ 2 < 6 ( ' ] ..X.} ] ] [ [ [ 0 q 0 0 $.%.",
"} } } } ' } +.O.O.O.@...@.....O.} | ) 6 8 8 M n._.c.H._.B + <.>.1.,Xk Z n [.I.L.L.H.^ 4 7 | | | _ { ..X.X.} } X.} } X.} ' ' } | ",
"..` ) { } ..@...@.X.{ ] { ..+.X.O.{ ) ( ` 2 @ l._.H.P.c.B V ,.>.*X<.H : V [.}.P.L._.N 3 8 _ _ ( _ { ..@.O.} } X.} ] { } { O.O.| ",
"{ ....{ { @.{ .... ._ _ ] X.@.X.@.` ` ) ( 9 @ l._.P.P.B B ^ d >.*X5XP V B B '.U.G.H.M 3 8 _ _ { { | { { } { { { { +.X.{ } } } @.",
"_ )  ._ _ ....@.{ ' o.X...X.&.......) ) 5 8 @ ^ +XL.F.P.}.R.t.p.*X5X).`._.J.G.G.P._.M @ ` ..] { ' { { } O.{ { { } O.{ |  . .) ] ",
") ) ` ) )  .....X.' ] 7 5 ] &.@.o.X.) ) ` 9 @ V _.F.L.P.K.].t.<.,Xp.gX[.}.G.Y.F.P.[.M @ o.6 ]  .) { } X.O.O.O.O.O.| } ..] ]  .] ",
"7 ) ) ( ( { ......] { 7 6 , ..+.X.X.) ) 7 9 O N _.L.L.Y.I.].w.*X,XFX).oXI.Y.Y.L.U.[.n @ w ) ` @.X..._ ....{ { } { {  .{ ]  . . .",
"6 ) ( ( ) ......) ) X.X..._ .. .{ ..] ) 7 e @ n OXP.L.Y.I.R.<.:X4X*XnX].{.I.|.Y.U.[.M 4 7 ) { _ ......` ] _ { } ' } ] {  .) ] { ",
"6 6 ) ( ] ....) ] { ..X.X.] X.X. .{ ] _ ( 9 @ M OX}.L. X'.).S.:X>X:X,.V.].|.F.U. XOXn 3 w { _ @.+.....)  ...{ | } ] {  .)  .' ] ",
"< 6 6 ) ) ....{ ..{ ..X.X.{ X.{ ....{ ) _ 8 @ + +X}.}.}.].E.,.>X>X>X>.w.@X#XI. X X.Xn 3 ] _ ` @.{ o.@.o.o.X...@.' } { ] ] ] ' ' ",
"< 6 6 ) _ ` ..] ........X.{ } { ....' ) { 8 4 + [..X X.XXXN.p.:X>X>X:Xw.T.].|.$X X[.n 9 7 _ @.` o.*.=.` @.` _ O.{ { { ..] _ ' ' ",
"5 6 6 ( ) { ] ......] { } } X.X...@.{ _ { 8 3 + [.}. XOX`.y.t :X8X>X:X,XA.oX#X$X X`.+ 4  .{ ` :.:.;X;X=.` *.=.@.{ ..) ) ) { ' 6 ",
"5 6 ( ) ) { { ..{ ..{ ..} } } } X.} ..' { 7 3 + +XP.}.+XR.o $ r ,X>X8X*XV.).|. X|.`.m 3 w ` *.;X;X=.A =.i.` ` @.| { { { { ] 7 6 ",
"< 6 6 _ ] ` ] ....X.] ..} { { } } ..{ { | w 4 + +X}.}..Xn.o X r 2X,X>X,XA.).#X X'.`.m 4 w 7 =.=.*.9 9 =.i.*.( _ | { { ..{ ' 6 6 ",
"5 5 ) ..) ) ..{ ....X.] ..{ X.X.@.O... .{ 7 4 n _.P.|._.R.X X 1 *X7X2X,XA.@X#X$X'.].m 4 w o.9 *.9 i.B.*.=.` ) ] { { { { _ ` 5 5 ",
"5 5 6 ) ) _ ..` ..{ ..] { } X.} } ........ .4 n `.J.|..Xb.X X r =X1X6X2XA.oX#XU._.XXm 4 o. .8 2 A =.*.*.*.9 ` ) _ { { { ` _ 5 , ",
", , 6 _ ) ) ..{ ..) ..) { } { } ..X...o.o. .4 n XX}.&X].T.% 1 1 1X1X6X4XA.@X#X$X'.XXm w ` o.` q 8 2 2 w `  .] ] { { _ ` ) ) , , ",
"5 5 7 ) ) ) )  ...] ..) ' X.{ X...X.X..... .w m XX.X{.oXy.C.1 =X6X1X1X4XA.@X&X$X'.OXm 4  .@.+.}  . . .7 @.....) { { _ ` 7 7 , > ",
"5 5 6 ) ) ) _ ) ` ..{ ] _ X.o.....@...o.X.o.z m oXOXOXVXV.S.r 2X6X6X3X4X<X@X&X$X'.oXA w ..} } } } q } ] o._ { | _ { ) _ 7 6 , > ",
", 5 6 ( ) ) ] ] ) ..] ..( ..X...@.....X.{ o.w m XXOX&XoXV.5Xr 2X6X8X3X4XaX%X#X&X[.oX# w  .| } } &.] } +...( _ ' { ] ) 7 6 6 , , ",
", 5 6 6 ) ) _ { { ] ) .._ ] X...O.O.X.....] w m oXOX%X).sX5X>.FX3X3X1X4X<X@X#X$X[.BX# w  . .X.} o.@.X...{ _ _ | _ ' _ 6 5 < > , ",
", , 5 6 6 ) ) ` ..) ) ..] ( X...O.@.X.X.} w w m BX&X%X).Z.5X#.1X1X1X8X4X<X@X#X#XOXBX# e w ..X...X...@...` ) | ( ' ' _ ( < , > > "
};
