/* XPM */
static char *_094_f9c53256a38e0923c72670e3e12cc93a773c31b43329e18ad614d44e4f7d405f[] = {
/* columns rows colors chars-per-pixel */
"64 64 256 2 ",
"   c #0B0202",
".  c #1B0200",
"X  c #150C0A",
"o  c #160805",
"O  c #1C110D",
"+  c #16110E",
"@  c #1D1412",
"#  c #1A161B",
"$  c #0F0A11",
"%  c #250904",
"&  c #2A140A",
"*  c #34180C",
"=  c #221613",
"-  c #231915",
";  c #2B1B15",
":  c #251D1A",
">  c #2A1E1B",
",  c #2D1612",
"<  c #371914",
"1  c #360C05",
"2  c #2B211C",
"3  c #27211A",
"4  c #33241D",
"5  c #39251A",
"6  c #3E2708",
"7  c #1D1A29",
"8  c #221E28",
"9  c #221E32",
"0  c #2D2322",
"q  c #272429",
"w  c #342A25",
"e  c #372A26",
"r  c #3C312D",
"t  c #39312A",
"y  c #282435",
"u  c #332D36",
"i  c #3D3432",
"p  c #393439",
"a  c #481C11",
"s  c #49251C",
"d  c #58281A",
"f  c #4A2F0F",
"g  c #61311E",
"h  c #492C25",
"j  c #562C23",
"k  c #43332A",
"l  c #4B352B",
"z  c #483627",
"x  c #5B3224",
"c  c #58362A",
"v  c #423633",
"b  c #433936",
"n  c #443B3A",
"m  c #4A3C37",
"M  c #563D34",
"N  c #633424",
"B  c #663B2A",
"V  c #6C3C2C",
"C  c #663727",
"Z  c #6C3E33",
"A  c #643B33",
"S  c #723F31",
"D  c #663428",
"F  c #4B413D",
"G  c #44403D",
"H  c #53433A",
"J  c #5B4638",
"K  c #5B4127",
"L  c #6C432D",
"P  c #674B2D",
"I  c #70412E",
"U  c #6D4232",
"Y  c #644A3D",
"T  c #674639",
"R  c #744434",
"E  c #794635",
"W  c #754A34",
"Q  c #7A4B35",
"!  c #754A3A",
"~  c #7B4C3B",
"^  c #76463A",
"/  c #7D513D",
"(  c #76543A",
")  c #745328",
"_  c #4B4443",
"`  c #534944",
"'  c #564A46",
"]  c #5E5553",
"[  c #5D524E",
"{  c #624C43",
"}  c #7C4E41",
"|  c #744D44",
" . c #695347",
".. c #7D5342",
"X. c #7C5449",
"o. c #7C5A4B",
"O. c #755648",
"+. c #785C51",
"@. c #655854",
"#. c #7C6358",
"$. c #756C6A",
"%. c #814E3C",
"&. c #83523E",
"*. c #89553F",
"=. c #824E41",
"-. c #835443",
";. c #8A5544",
":. c #855A45",
">. c #8B5A46",
",. c #855B4A",
"<. c #8B5C4B",
"1. c #85564A",
"2. c #915D4C",
"3. c #905A47",
"4. c #895D53",
"5. c #935F51",
"6. c #8D614D",
"7. c #86694C",
"8. c #92614E",
"9. c #99634F",
"0. c #8D6352",
"q. c #8D6B5D",
"w. c #886658",
"e. c #946453",
"r. c #956954",
"t. c #9A6A56",
"y. c #956C5B",
"u. c #9B6C5C",
"i. c #976657",
"p. c #9B715E",
"a. c #94745E",
"s. c #92724F",
"d. c #A16E5C",
"f. c #A3725E",
"g. c #886D63",
"h. c #9A6E61",
"j. c #8E7363",
"k. c #9D7362",
"l. c #987767",
"z. c #9C7D73",
"x. c #867C7B",
"c. c #A37464",
"v. c #A97564",
"b. c #AA7966",
"n. c #A57A6A",
"m. c #AC7C6C",
"M. c #A57768",
"N. c #B17E6C",
"B. c #B17A66",
"V. c #A97C71",
"C. c #AB786B",
"Z. c #BBA35F",
"A. c #AD816D",
"S. c #A7836A",
"D. c #B2826E",
"F. c #AC8372",
"G. c #A98778",
"H. c #B38474",
"J. c #B98676",
"K. c #B38976",
"L. c #B48C7A",
"P. c #BB8C7C",
"I. c #B98778",
"U. c #BC917E",
"Y. c #B89977",
"T. c #B89A6B",
"R. c #BBA265",
"E. c #BBA577",
"W. c #A48965",
"Q. c #C08D7E",
"!. c #C1927E",
"~. c #C39C6C",
"^. c #C6AA7A",
"/. c #CCB57C",
"(. c #CCB074",
"). c #DEC67C",
"_. c #928A8B",
"`. c #BC8E81",
"'. c #B08F80",
"]. c #BD9282",
"[. c #B89889",
"{. c #B1948A",
"}. c #BCA487",
"|. c #A19FA0",
" X c #C29484",
".X c #C39986",
"XX c #C59689",
"oX c #C59B8A",
"OX c #CA9C8C",
"+X c #C99787",
"@X c #CD9E91",
"#X c #C69486",
"$X c #C8A48B",
"%X c #D6B787",
"&X c #CDA293",
"*X c #C9A797",
"=X c #D2A394",
"-X c #D4A598",
";X c #D5A99A",
":X c #D8AA9A",
">X c #D9BA9B",
",X c #CBB28A",
"<X c #E5BE94",
"1X c #E3BC8A",
"2X c #D9B3A1",
"3X c #D1BAAE",
"4X c #E2B4A4",
"5X c #DAC290",
"6X c #E5C48A",
"7X c #E6C394",
"8X c #EAC495",
"9X c #E5C39B",
"0X c #EAC59B",
"qX c #EBC99C",
"wX c #E8CB97",
"eX c #EFCE94",
"rX c #DCD3B6",
"tX c #DCC6B1",
"yX c #E5C5A3",
"uX c #EBCBA5",
"iX c #EACCAB",
"pX c #E6C8A8",
"aX c #E5CCB2",
"sX c #E7CEB4",
"dX c #E8D4BB",
"fX c #F4D5B9",
"gX c #F4D2AD",
"hX c #FFECBC",
"jX c #F9E8B9",
"kX c #FAE6AF",
"lX c #DACECC",
"zX c #ECDAC4",
"xX c #EAD9C7",
"cX c #F3DBC7",
"vX c #EADAD7",
"bX c #EDD5CC",
"nX c #FAE8CA",
"mX c #FEF3CD",
"MX c #FCF1C4",
"NX c #EBE2D9",
"BX c #F8E7D6",
"VX c #FDF3D3",
"CX c #FFF9D4",
"ZX c #FEF5DA",
"AX c #FFFADC",
"SX c #F7F2D2",
"DX c #EFE0C3",
"FX c #F6EBE7",
"GX c #FFFCE3",
"HX c #FEFDEC",
"JX c #FAF3E6",
"KX c #FEFEF4",
"LX c #FDFEFA",
"PX c #FAF7F3",
"IX c #EBE4E3",
"UX c #E8DDE1",
/* pixels */
"LXKXGXjXZ.).hXMXH b ` G p p q q q : + # w w w 3 : : 0 3 = @ : : : : = > : + : - @ @ v 2 @ 3 n e G x.b F [ $.x._.$.tXlXaXiX7XqX8X",
"LXKXGXjXZ.).kXCX4 _ n _ q t 3 3 - # :   8 + 3 3 3 : : - ; O O @ @ O : # - 0 @ 3 @ : 2 t : @ b t b $.' _ n v [ F @.G xXtXfX9X7XwX",
"LXKXGXjXZ.5XjX,X{ H r _ t 3 3 3 : # X X X + 3 3 - - @ : : @ X X = O X o X @ + - = X > 0 : 0 b n _ [ v F ` b _ _ $.` G.aXpXuXqX7X",
"LXPXGXjXZ.).jXf G r i w q 3 3 @ @ X X O     @ @ - : 3 3 ; - - : @ @ @ @ X @ O - : ; X r : r ` n ] n n _ ` ] ] $.' ` F xXfX>X7XwX",
"LXKXGXjXR.).rXK t ` i t t t ; * > - - = 4 4 4 > - = , ; 2 2 2 4 e > , > O = , > : w > 2 _ ` b ` v F F x.$.] ' ` ` [ H #.tXuX0X7X",
"KXKXJXjXR.6XW.K H 2 t 2 2 w z z l l M { J { { ' 5 5 5 e 5 s z M l h h k < e e e k w h m m J H H [ [ n v F F p v b 2 z 4 tX>X<X8X",
"KXKXAXMX^.6XP H 4 t 2 w J +.l.l.n.j.G.'.G.G.G.S.o.T h c Y O.O.+.w.+.#. .M M c Y K J J Y +.+.O.@.{ M n n F n n u i 0 5 z O.sX9X0X",
"PXKXGXnXR.7Xz K t 4 z J _.G.G.[.'.{.[.$XoXoX'.].F.l.s.a.S.L.G.'.F.G.F.l.n.h.q.q.j.q.j.j.j.j.q. . .@.[ ` F F n n r e t 3 * $XuX7X",
"KXKXGXnXE.wXP J J H [ #.}.[.[.oXoX+X$X X X$XoX.X X].P.[..X].].P.'.L.L.K.H.F.F.L.G.L.L.L.L.G.l.O.J H ` ` ` n b v w 8 8 h * #.wXwX",
"KXHXGXnXE.kXJ 5 G H { {.[.}.oX.X.XI.J.P. X+X.X@XoXXX XXXoX.X.X X+XU.U.L.P.Q.J.K.U.U.L.L.L.G.l.0. .{ ' ` _ b i p e e r > * Y.uX7X",
"LXPXHXnXE.) z G z J +.{.@X$X.XoXOXOX X].!.].].I.OXoXoX@X@X.XXXXX X X XP.I.P.I.P.I.!.].].I.K.m.h.T J H n p i 0 0 8 0 w w 5 >X9X0X",
"LXKXGXnX,Xf 4 3 G Y W.G.[.].]..XoX@XXXoXXX+XXXXX X`.XXXX]. X`.`.P.I.J.J.Q.J.Q.J.Q.P.J.L.P.L.H.k.O.Y m r i e w e > , o 0 & sXuX0X",
"PXKXGXSXY.K t 4 k @.S..X].XXoXoX$XoXoX&XXX].`.P.`.`. X].#X+X X XH.N.N.H.N.N.J.Q.P.Q.I.J.H.m.K.n.w. .H t i t i r r 4 O O 5 tX7XwX",
"LXPXHXZXE.6 z 4 J #.L.oXXXXXU.]..X.XoX].].&X=X*XoXOX@X@X=X=X@XOXXX`.P. X#X#X XQ.Q.I.J.J.H.H.A.c.w.{ m k t w - = O O 3 - o iXqXwX",
"LXKXGXZXW.6 z 4 ' j.U.L.OXOXU.[.$X-X=X;X;X=XOXOX@XOX@X=X:X:X=X=X-X$X+X!. XQ.+X XP.J.H.H.n.b.D.S.0. .H m v i e w 2 X X o & fXqX7X",
"LXKXHXZX}.6 H k F j.L.P. X].&X$XY.=XoX&X&XXX+X=XOXXXXX@X@X@XOXOX-X;X=XOX XQ. XI. XJ.N.N.N.m.A.b.y.O.J l b e 0 2 2 2 3 X ; aX0X7X",
"LXLXHXBX5X6 H k ' z.L.U..X].].l.l.S.S.l.F.p.c.H..X X!. X XOX].P.K.U..X.X&X$X&X.X].I.J.N.N.b.b.b.y.o.J k r t 2 4 2 3 -   O jXwX6X",
"LXKXHXZX}.6 Y k { G.].`.U.U.G.a.k.a.q.0.u.M.n.A.].]. X.X X+XU.J.H.k.c.F.L.].=X&X XI.H.V.m.m.S.M.y.,.Y M z e 3 3 3 - 3 O 6 pX7XeX",
"LXPXKXZX,X7.Y z G.'.].P.U.K.n.S.F.k.7.,.e.k.c.n.J.J.Q.J.J.J.J.A.c.e.0.0.y.k.k.k.J.H.N.N.b.b.b.b.u.X.M c z t 4 4 3 = - & 3XpXuX1X",
"PXLXKXSX,XW.P z [.[..XP.K.F.l.L.F.G.K.S.F.u.t.H.H.J.!.J.m.M.J.A.y.e.<.! ..6.e.4.M.m.N.H.m.v.v.v.c.i.O.T z 4 4 4 4 3 & 5 dXgX7XeX",
"LXPXKXZX5Xs.K z [.[.XX!.m.n.F.{.].oX$X.XK.m.h.c.d.m.J.D.N.v.m.M.e.4.0.,...6.a.y.h.b.m.N.N.v.M.v.A.M.w.o.Y l k t 4 e * 5 aX<XqX7X",
"LXKXHXZX%X) K #.*X.X].L.F.K.oX*X;X*XoX.Xl.M.i.5.N.P.#XJ.H.v.u.i.u.M.K.K.S.n.n.c.c.h.k.c.b.b.v.n.n.F.V.l.+.T z h z 5 z ( >XgX0X8X",
"LXKXHXAX/.s.B G..X.X].J.L.*X-X*X*X;XoXK.u.e.1.>.D.Q. XN.m.i.>.>.e.V.K.`.&X].`.K.C.k.e.i.c.c.v.H.J.J.m.k.y.O.M z z z l c uXuX8X8X",
"LXPXHXAX(.s.P ].OX XU.L.oX;X*X2X;X:X[.h.k.,.~ -.m.Q. XN.b.8.~ :.<.u.c.].&XoXOX`.J.v.i.i.d.c.n.I.I.P.I.m.k.#.J z M Y T L yXgX7X7X",
"LXKXKXSX%X%X9.oX+XJ.A.m..X'. XoXY.F.a.k...W U U M.P.P.m.c.%.C N ~ B U m.].].P.L.H.I.M.u.k.C.V.`.I.H.N.n.k.X.Y K  .o.o.L uX8X8XqX",
"LXLXHXAX^.1XD.OXP.m.u.m.V.H.F.].oX[.k.! B B B U M.oXJ.J.c.! C N ^ ~ :.m.[.U. XL.I.N.J.N.u.c.N.N.N.N.B.m.M.X.Y Y O.w.r.L gXqXqX8X",
"LXKXHXAX(.1XU.+XI.D.c.r.k.y.N.OX].K.M.k.k.,.! 1.m. XoXK.m.u.^ 1.-.a 1 1 6.k.F.n.c.k.i.e.i.i.e.u.v.C.v.k.k.0.( | ( 0.M.( gX<XqX8X",
"LXPXHXVX/.(.A. XP.+X:XoXF.C.i.E W ..( ! U ~ -.h.F..XOXK.N.i.1.1.k.h.+XM.K.K.y.r.=.d V g i.C.M.k.v.v.m.A.k.y.,.T U 7.f.6.fX0XqX8X",
"LXLXKXVX/.(.D. X XOXXX@XI.m.i.9.<.0.;.<.u.c.u.c..XoXOX`.N.4.h.h.i.1.,.} ! ! :.,.u.F.`. XM.c.c.c.f.f.f.c.l...0.B g &.r.t.gX0XqX8X",
"LXLXHXVX^.~.!.#X#X`.@X`.A.c.d.2.4.e.c.d.c.M.N.P.@X+XOX X`.m.V.V.c.c.k.i.y.0.k.,.>.v.m.N.J.H.m.m.B.B.m.V.h.h.k.6.g &.6.c.gX4X8X8X",
"LXLXHXVX^.~.+X+X#X`.N.V..X+X=X=X=XOXOXOXoX X+X X@X@X-XOXI.`.XXXX@X XU.oX].].P.L.U.OXOX=XOXOX+XH.B.v.V.V.n.q.Y.*.Q Q 2.c.gXuX<X8X",
"LXLXHXVX^.~.!.+X`.V.XX@X:X:X:X=XOX:X=X=X-X-X@X@X-X=X=XXXXX@XOX-X-X-X:X:X;X;XoX&X=XOX=X=X=XOX XJ.B.C.C.F.G.F.A.t.&.&.d.c.gXuX8X8X",
"LXKXHXAX^.~.!.Q. X-X:X-X@X=X-X@X+XXXJ.J.C.OX:X&X-X@X-X@XXX=XXX`.@X-X-X-X;X;X2X;X:X:X-X&XoXXX+XP.B.c.m.m.F.K.K.<.u.c.h.p.iXuXqX8X",
"LXKXKXVX$X1XQ.Q.`. X`.`.I.K.I.V.M.e.1.S ~ +X-X4X*X@X@X;X-XOXk.1.1.h.C.J.L.I.oX&X=X=X&X@XXX`. XI.m.v.m.N.K.K.L.c.I.+Xk.p.iXuX8X8X",
"LXLXKXVX^.%XD.~.J.N.H.N.m.c.u.e.e.} g d c.OX2X=X@X@X@X;X=X XM.=.d D Z ~ 1.-.c.I.OXOX+XXX XP.I.N.m.c.c.m.K.F.A.m.J.P.K.OXgXuX8X1X",
"LXKXHXJX^.~.D.D.v.h.5.5.-.~ ^ R D D j -.OX+X=X-X@X-XOX@X@X X`.h.1.d D E E =.1.t.N.V.J.J.J.N.N.B.b.v.c.k.F.A.A.A.e.P.].cXsXuX6X8X",
"LXLXKXVXE.W.D.D.k.>.} } R C d d d R ~ K.:X X XOX@XOXXXXX`.XX@X=XN.E g V V N D E <.5.i.d.c.v.b.f.c.d.f.b.D.D.J.K.u.V.'.fXiXgX7X1X",
"LXKXHXVX^.gXf.t.9.=.E S C g N C ! 1.5.A.2XoX`.+X[.].`.'.L.:X-X-X@Xi.S R %.V d D R R ~ =.>.9.9.9.t.t.f.b.b.J.J.P.&XXX{.cXpXiX0X0X",
"PXKXHXSXE.jXs.r.%.E E Z N C V Z =.,.0.! F.&XXX XN.I.`.N.m.N.P. XN.=.B } ~ ^ V d C V Q Q -.>.*.8.9.r.u.f.b.D.D.I.:X2X'.dXsXuX8X<X",
"LXKXHXVX,XhX6.-.2.%.E V V V R ~ ~ -.:.,.D B 5.d.h.h.M.V.i.a d d d N R ..} ! D d d N V V R ~ &.*.:.8.9.t.b.J.N.J.z.l.aXdXsXuXqX<X",
"LXKXJXVXE.hXS.7.<.2.-.R C C ~ ~ &.e.6.7.,.! N V %.;.>.C a d V x S } ..1.1.| Z Z D D D D V V %.Q Q Q 3.i.f.N.H.F.cXZXdXdXsXpX0X<X",
"LXKXHXmXE.MXY.:.e.2.;.R I N ^ R ~ r.y.,.q.-.! ~ C N N g N g Z -.} -.4.e.X.X.| Z Z S V C V V V I Q &.*.r.v.b.m.F.BXcXxXxXtXiX<X8X",
"LXKXHXVXE.MXgX7.;.2.1.-.-.W W V V W X.o.X.1.} ~ E E R W Q R U ~ 5.5.4.w.h.g.1.^ S S E E E E E R Q *.:.8.c.c.M.M.cXcXbXdXaXuX8X8X",
"LXKXHXVXE.hXCXq.8.9.<.>.<.-.Q N d a X.q.w.g.q.e.1.%.&.:.:.-.<.i.h.k.g.4.| c A Z S S %.;.%.%.%.E ) &.6.9.u.c.u.M.cXcXdXxXsXyXuX8X",
"LXKXHXSXE.hXCXs.r.9.i.0.i.<.} D s a . . < M A Z S E } ,.| Z D j x x s j < a % j Z ~ >.3.*.%.E Q *.*.6.r.p.p.p.l.nXzXxXxXpXiX0X<X",
"LXKXHXSXE.MXCX7.p.9.t.i.r.e.=.} A h < . . +.T Z A Z B B C j A Z d M c M & . < j } =.i.9.*.E Q %.*.3.6.8.0.0.y.a.cXcXNXdXaXiX<X8X",
"LXKXHXSXE.hXCXW.r.8.e.u.0.y.E } 1.c h . o { +.4.1.1.~ ,.,...1.1.| o.5 h . % h A X...i.e.~ Q ~ &.*.9.6.6.6.w.u.l.cXcXzXdXsXpX9X8X",
"LXKXHXSXE.jXCXzXr.8.<.6.r.p.| 5.4.| l 5   . . % '.n.q.j.q.j.g.A & & . . % < M | 1.X.e.<.%.Q ~ -.9.3.6.6.6.6.h.$XBXbXzXzXaX9X9X7X",
"LXKXHXVXT.hXCXZXs.t.3.9.9.r.8.M.t.0.c h &   . % o % % , % 1 % % & & % % c c | X.5.<.<.8.%.E Q ;.3.3.*.3.>.6.7.nXBXcXbXzXsXyX0X7X",
"LXLXHXmXR.kXAXZX>X7.r.8.*.8.t.M.M.d...j h . % @ = , % , , < , < & & % < X.j 5.<.<.<.8.6.-.~ E %.3.*.*.*.6.,.O.BXBXBXcXdXpXuX7X8X",
"LXKXHXmXE.kXAXZXaX( s.,.>.-.c.N.N.k.h.| h < % h < < < , < , < < 5 . s T j | e.5.<.e.8.*.S V Q *.*.%.*.*.<.,.oXBXNXDXbXdXaXpX9X7X",
"LXKXHXmXR.eXCXAXdXnXP ~ -.1.0.J.v.c.h.V.x M h a % 1 h j s j j s c c | j 1.5.e.2.e.8.>.Q I R W ( I ) Q 6.<.y.FXbXcXNXDXzXpXyX9X9X",
"LXKXGXMXR.wXCXAXzXZXZXT ! ! r.b.N.d.V.k.1.x X.1 A j s a s s a s j X.x x t.u.t.6.t.6.Q W L Q Q W W L ~ 1.4.z.g.FXBXvXcXdXpXuXqX9X",
"KXKXHXMXR.6XCXAXzXnXBXtXo.T / p.B.C.v.C.h.| A h.a A D D D D D S } x N e.2.8.i.8.r.>.I L B ! / W L P } 4.g.{., [ NXBXBXdXsXiX9X5X",
"PXKXGXMXR.).CXAXnXdXHXHX#.o.U r.d.d.c.c.h.d.^ D h.V.=.S =.C.5.S d D -.5.e.r.r.8.8.) g C R / W C C Q :.q.g.PXe e NXNXxXzXaX9XqX9X",
"KXKXGXMXR./.mXAXnXSXJXJXGXl ..-.h.d.d.d.u.i.9.V ^ 5.5.=.1.=.^ d g %.<.e.8.r.9.>.>.B g L Q ~ V C ( / 7.j.4.FX_.8 ] PXBXxXsXpX<X6X",
"KXHXGXMX(./.SXGXZXdXJXJXKXJXo.~ 1.u.d.f.9.8.2.;.S V N N N N V ~ =.3.<.e.<.e.<.>.R N &.E R L V %.-./ a.#.3XvX_.8 u _ UXlXrXpX7X8X",
"KXKXHXmX(./.CXAXSXxXFXKXKXHXg...~ <.e.d.f.d.2.*.Q E ^ ~ ^ ~ -.~ =.5.<.i.e.8.8./ C ~ R ~ R ~ <.E ~ <.a.#.FXPXu q u y y lXlXpX8X1X",
"LXKXHXSX(./.CXAXAXrXJXKXPXKXBX4.,.~ 8.u.f.9.t.9.%.E R U I R ~ ~ =.5.5.t.8.0.:.R E %.~ R <.-.=.1.>.y.#.3XIXFX$ 7 y y p ] bXaXyX0X",
"LXKXHXSX)./.CXAXVXrXJXKXKXPXPXw.0.e.8.e.f.B.f.t.t.<.-.~ / ~ ~ >.5.5.i.i.<.<.Q R -.2.~ ;.=.1.1.~ 4.4.Y vXIXIX$ q y y u p n *XpXyX",
"LXKXKXAX5X,XCXAXAXrXJXKXKXLXPXz.4.2.<.<.t.C.N.c.u.h.u.t.t.t.t.f.u.t.u.r.:...L %.6.%.3.;.-.-.,.0.g.| vXFXIX|.7 7 7 y 9 q u v {.3X",
"LXLXKXAXwX/.CXAXCXdXZXPXLXPXLX#.g.4.<.>.f.c.C.C.M.c.c.c.d.d.d.d.c.f.r.e.>.~ W -.>.*.>.>.<.>.:.y.X.{.vXvXIX7 7 7 7 9 9 u u 0 v lX",
"LXLXKXGXuX/.CXGXCXrXJXPXLXLXlXe j.5.8.&.8.9.u.N.M.d.h.k.d.v.B.B.d.t.6.>./ Q *.-.%.*.*.&.:.8.1...3XlXvXUXlX$ # 7 7 7 8 9 9 u e p ",
"LXLXKXGXdX^.CXAXCXrXBXPXPX_.n @.BXk.>.<.~ <.i.u.h.c.h.d.v.d.5.2.9.<.<.Q I Q :.&.>.>.&.6.8.:.} @XbXvXFXUX$.8 7 7 9 7 8 q 9 9 9 u "
};
